<svg width="200" height="201" viewBox="0 0 200 201" fill="none" xmlns="http://www.w3.org/2000/svg">
  <path
    d="M23.1807 136.015C10.3986 127.004 7.3318 109.273 16.3441 96.4892L64.9097 27.5994C73.922 14.8156 91.6524 11.7464 104.434 20.7574L173.315 69.3165C186.097 78.3275 189.164 96.0583 180.151 108.842L131.586 177.732C122.573 190.516 104.843 193.585 92.0611 184.574L23.1807 136.015Z"
    fill="#DA4B4D" />
  <path
    d="M33.1431 130.478C19.3466 120.752 16.0365 101.614 25.764 87.8158L68.9337 26.5802C78.6612 12.7818 97.7984 9.46902 111.595 19.1952L172.822 62.359C186.619 72.0852 189.929 91.2229 180.201 105.021L137.032 166.257C127.304 180.055 108.167 183.368 94.3704 173.642L33.1431 130.478Z"
    fill="#202224" />
  <path
    d="M36.2567 126.061C24.8952 118.052 22.169 102.29 30.1797 90.9274L73.3487 29.6926C81.3594 18.3296 97.1204 15.6012 108.482 23.6108L169.709 66.7746C181.071 74.7842 183.797 90.5456 175.786 101.909L132.617 163.144C124.606 174.507 108.845 177.236 97.4833 169.226L36.256 126.062L36.2567 126.061Z"
    fill="#DA4B4D" />
  <path
    d="M33.4048 102.666C37.6805 99.4125 42.6146 97.1529 47.526 95.019C53.1887 92.559 58.7836 89.9454 64.4057 87.3908C85.1954 77.9449 105.805 68.0816 126.657 58.7774C133.219 55.8495 139.853 53.106 146.514 50.4225L108.483 23.6115C97.1213 15.6019 81.3603 18.3302 73.3496 29.6933L30.1799 90.929C27.0838 95.3207 25.5978 100.369 25.5888 105.373C28.177 104.435 30.7965 103.562 33.4048 102.666Z"
    fill="#FF6062" />
  <path
    d="M65.079 101.428C56.5576 95.421 54.5139 83.6007 60.5215 75.079L92.8992 29.1516C98.9058 20.6293 110.727 18.5831 119.248 24.5904L165.168 56.9631C173.69 62.9705 175.733 74.7909 169.726 83.3125L137.349 129.239C131.34 137.762 119.52 139.807 111 133.8L65.0797 101.427L65.079 101.428Z"
    fill="#202224" />
  <path
    d="M162.055 61.3788L116.135 29.0061C110.038 24.7082 101.613 26.1667 97.3143 32.2641L64.9372 78.1906C60.6387 84.288 62.0961 92.7139 68.1926 97.0118L114.113 129.384C120.209 133.682 128.635 132.224 132.934 126.126L165.311 80.2C169.609 74.1035 168.152 65.6767 162.055 61.3788Z"
    fill="#FF6062" />
</svg>