<svg width="200" height="101" viewBox="0 0 200 101" fill="none" xmlns="http://www.w3.org/2000/svg">
  <path
    d="M23.1807 36.0148C10.3986 27.0038 7.3318 9.27304 16.3441 -3.51077L64.9097 -72.4005C73.922 -85.1844 91.6524 -88.2536 104.434 -79.2425L173.315 -30.6835C186.097 -21.6725 189.164 -3.94172 180.151 8.84209L131.586 77.7319C122.573 90.5157 104.843 93.5849 92.0611 84.5739L23.1807 36.0148Z"
    fill="#D5DDE1" />
  <path
    d="M33.1431 30.478C19.3466 20.7519 16.0365 1.61418 25.764 -12.1842L68.9337 -73.4198C78.6612 -87.2182 97.7984 -90.531 111.595 -80.8048L172.822 -37.641C186.619 -27.9148 189.929 -8.77714 180.201 5.02122L137.032 66.2569C127.304 80.0552 108.167 83.368 94.3704 73.6418L33.1431 30.478Z"
    fill="#202224" />
  <path
    d="M36.2567 26.0614C24.8952 18.0518 22.169 2.29047 30.1797 -9.0726L73.3487 -70.3074C81.3594 -81.6704 97.1204 -84.3988 108.482 -76.3892L169.709 -33.2254C181.071 -25.2158 183.797 -9.45439 175.786 1.90869L132.617 63.1444C124.606 74.5074 108.845 77.2358 97.4833 69.2262L36.256 26.0624L36.2567 26.0614Z"
    fill="#D5DDE1" />
  <path
    d="M33.4048 2.66586C37.6805 -0.587549 42.6146 -2.84716 47.526 -4.98102C53.1887 -7.44098 58.7836 -10.0546 64.4057 -12.6092C85.1954 -22.0551 105.805 -31.9184 126.657 -41.2226C133.219 -44.1505 139.853 -46.894 146.514 -49.5776L108.483 -76.3885C97.1213 -84.3982 81.3603 -81.6698 73.3496 -70.3067L30.1799 -9.07106C27.0838 -4.6793 25.5978 0.36885 25.5888 5.37273C28.177 4.43495 30.7965 3.56193 33.4048 2.66586Z"
    fill="white" />
  <path
    d="M65.079 1.42841C56.5576 -4.57896 54.5139 -16.3993 60.5215 -24.921L92.8992 -70.8484C98.9058 -79.3707 110.727 -81.4169 119.248 -75.4095L165.168 -43.0369C173.69 -37.0295 175.733 -25.2091 169.726 -16.6875L137.349 29.239C131.34 37.7616 119.52 39.8069 111 33.8002L65.0797 1.42749L65.079 1.42841Z"
    fill="#202224" />
  <path
    d="M162.055 -38.6212L116.135 -70.9939C110.038 -75.2918 101.613 -73.8333 97.3143 -67.7359L64.9372 -21.8094C60.6387 -15.712 62.0961 -7.28611 68.1926 -2.9882L114.113 29.3845C120.209 33.6824 128.635 32.2239 132.934 26.1265L165.311 -19.8C169.609 -25.8965 168.152 -34.3233 162.055 -38.6212Z"
    fill="white" />
</svg>