<svg viewBox="0 0 1200 234" xmlns="http://www.w3.org/2000/svg">
  <path
    d="M0 216L33 222C67 228 133 240 200 228C267 216 333 180 400 186C467 192 533 240 600 228C667 216 733 144 800 102C867 60.0002 933 48.0002 1000 66.0002C1067 84.0002 1133 132 1167 156L1200 180V0.000228882H1167C1133 0.000228882 1067 0.000228882 1000 0.000228882C933 0.000228882 867 0.000228882 800 0.000228882C733 0.000228882 667 0.000228882 600 0.000228882C533 0.000228882 467 0.000228882 400 0.000228882C333 0.000228882 267 0.000228882 200 0.000228882C133 0.000228882 67 0.000228882 33 0.000228882H0V216Z"
    fill="#FF6062" />
</svg>