<svg viewBox="0 0 1200 239" xmlns="http://www.w3.org/2000/svg">
  <path
    d="M0 216.225L25.0417 186.194C50.0833 156.162 100.167 96.1 150.25 96.1C200.333 96.1 250.417 156.162 300.5 162.169C350.583 168.175 400.667 120.125 450.75 90.0937C500.833 60.0625 550.917 48.05 601 66.0687C651.083 84.0875 701.167 132.137 751.25 174.181C801.333 216.225 851.417 252.262 901.5 234.244C951.583 216.225 1001.67 144.15 1051.75 108.112C1101.83 72.075 1151.92 72.075 1176.96 72.075H1202V0H1176.96C1151.92 0 1101.83 0 1051.75 0C1001.67 0 951.583 0 901.5 0C851.417 0 801.333 0 751.25 0C701.167 0 651.083 0 601 0C550.917 0 500.833 0 450.75 0C400.667 0 350.583 0 300.5 0C250.417 0 200.333 0 150.25 0C100.167 0 50.0833 0 25.0417 0H0V216.225Z"
    fill="#A069F7" />
</svg>