<svg id="visual" viewBox="0 0 900 550" xmlns="http://www.w3.org/2000/svg" xmlns:xlink="http://www.w3.org/1999/xlink"
  version="1.1">
  <path
    d="M0 391L25 414.8C50 438.7 100 486.3 150 489.5C200 492.7 250 451.3 300 456.2C350 461 400 512 450 528.2C500 544.3 550 525.7 600 502.5C650 479.3 700 451.7 750 455.8C800 460 850 496 875 514L900 532L900 601L875 601C850 601 800 601 750 601C700 601 650 601 600 601C550 601 500 601 450 601C400 601 350 601 300 601C250 601 200 601 150 601C100 601 50 601 25 601L0 601Z"
    fill="#96CF25" stroke-linecap="round" stroke-linejoin="miter"></path>
</svg>