<svg viewBox="0 0 1200 239" xmlns="http://www.w3.org/2000/svg">
  <path
    d="M0 22.775L25.0417 52.8063C50.0833 82.8375 100.167 142.9 150.25 142.9C200.333 142.9 250.417 82.8375 300.5 76.8313C350.583 70.825 400.667 118.875 450.75 148.906C500.833 178.938 550.917 190.95 601 172.931C651.083 154.913 701.167 106.863 751.25 64.8188C801.333 22.7751 851.417 -13.2624 901.5 4.7563C951.583 22.775 1001.67 94.85 1051.75 130.888C1101.83 166.925 1151.92 166.925 1176.96 166.925H1202V239H1176.96C1151.92 239 1101.83 239 1051.75 239C1001.67 239 951.583 239 901.5 239C851.417 239 801.333 239 751.25 239C701.167 239 651.083 239 601 239C550.917 239 500.833 239 450.75 239C400.667 239 350.583 239 300.5 239C250.417 239 200.333 239 150.25 239C100.167 239 50.0833 239 25.0417 239H0V22.775Z"
    fill="#00AAFF" />
</svg>