<svg viewBox="0 0 1200 288" fill="none" xmlns="http://www.w3.org/2000/svg">
  <mask id="mask0" mask-type="alpha" maskUnits="userSpaceOnUse" x="0" y="0" width="1200" height="288">
    <rect width="1200" height="288" fill="#C4C4C4" />
  </mask>
  <g mask="url(#mask0)">
    <mask id="mask1" mask-type="alpha" maskUnits="userSpaceOnUse" x="0" y="0" width="1200" height="928">
      <rect y="233" width="1200" height="695" fill="#A069F7" />
      <path fill-rule="evenodd" clip-rule="evenodd"
        d="M0 0L50 48C100 96 200 192 300 222C400 252 500 216 600 168C700 120 800 60 900 36C1000 12 1100 24 1150 30L1200 36V288H1150C1100 288 1000 288 900 288C800 288 700 288 600 288C500 288 400 288 300 288C200 288 100 288 50 288H0V0Z"
        fill="#A069F7" />
    </mask>
    <g mask="url(#mask1)">
      <rect y="233" width="1200" height="695" fill="#A069F7" />
      <path fill-rule="evenodd" clip-rule="evenodd"
        d="M0 0L50 48C100 96 200 192 300 222C400 252 500 216 600 168C700 120 800 60 900 36C1000 12 1100 24 1150 30L1200 36V288H1150C1100 288 1000 288 900 288C800 288 700 288 600 288C500 288 400 288 300 288C200 288 100 288 50 288H0V0Z"
        fill="#A069F7" />
      <path d="M1251.67 0.00537109H-712.999V1473.5H1251.67V0.00537109Z" fill="#9658F8" />
      <path d="M563.05 0.00585938H542.781V60.5503H563.05V0.00585938Z" fill="#B45EFA" />
      <path d="M542.781 0.00585938H522.512V100.924H542.781V0.00585938Z" fill="#B45EFA" />
      <path d="M522.513 0.00585938H502.244V161.501H522.513V0.00585938Z" fill="#B45EFA" />
      <path d="M502.276 0.00585938H482.008V222.046H502.276V0.00585938Z" fill="#B45EFA" />
      <path d="M482.008 60.5502H461.739V262.387H482.008V60.5502Z" fill="#B45EFA" />
      <path d="M461.772 121.128H441.503V302.794H461.772V121.128Z" fill="#B45EFA" />
      <path d="M441.503 201.843H421.234V363.338H441.503V201.843Z" fill="#B45EFA" />
      <path d="M421.267 262.42H400.998V423.915H421.267V262.42Z" fill="#B45EFA" />
      <path d="M319.989 121.128H299.72V545.004H319.989V121.128Z" fill="#B45EFA" />
      <path d="M380.762 0.00585938H360.493V141.298H380.762V0.00585938Z" fill="#B45EFA" />
      <path d="M360.493 0.00585938H340.224V262.42H360.493V0.00585938Z" fill="#B45EFA" />
      <path d="M340.224 0.00585938H319.955V383.509H340.224V0.00585938Z" fill="#B45EFA" />
      <path d="M785.843 0.00585938H765.574V20.1764H785.843V0.00585938Z" fill="#B45EFA" />
      <path d="M765.574 0.00585938H745.306V60.5503H765.574V0.00585938Z" fill="#B45EFA" />
      <path d="M745.338 0.00585938H725.069V80.7536H745.338V0.00585938Z" fill="#B45EFA" />
      <path d="M725.07 0.00585938H704.801V121.127H725.07V0.00585938Z" fill="#B45EFA" />
      <path d="M704.801 0.00585938H684.532V141.298H704.801V0.00585938Z" fill="#B45EFA" />
      <path d="M684.565 40.3796H664.296V181.672H684.565V40.3796Z" fill="#B45EFA" />
      <path d="M664.296 80.7537H644.027V201.875H664.296V80.7537Z" fill="#B45EFA" />
      <path d="M644.06 121.128H623.791V222.046H644.06V121.128Z" fill="#B45EFA" />
      <path d="M623.791 141.298H603.522V262.42H623.791V141.298Z" fill="#B45EFA" />
      <path d="M603.555 181.672H583.286V282.59H603.555V181.672Z" fill="#B45EFA" />
      <path d="M583.286 222.046H563.017V302.793H583.286V222.046Z" fill="#B45EFA" />
      <path d="M583.286 222.046H563.017V322.964H583.286V222.046Z" fill="#B45EFA" />
      <path d="M563.05 262.42H542.781V363.338H563.05V262.42Z" fill="#B45EFA" />
      <path d="M1089.65 0.00585938H1069.38V20.1764H1089.65V0.00585938Z" fill="#B45EFA" />
      <path d="M1069.38 0.00585938H1049.11V40.3797H1069.38V0.00585938Z" fill="#B45EFA" />
      <path d="M1049.14 0.00585938H1028.87V60.5503H1049.14V0.00585938Z" fill="#B45EFA" />
      <path d="M1028.87 0.00585938H1008.6V80.7536H1028.87V0.00585938Z" fill="#B45EFA" />
      <path d="M1008.64 0.00585938H988.367V100.924H1008.64V0.00585938Z" fill="#B45EFA" />
      <path d="M988.368 0.00585938H968.099V121.127H988.368V0.00585938Z" fill="#B45EFA" />
      <path d="M968.131 0.00585938H947.863V121.127H968.131V0.00585938Z" fill="#B45EFA" />
      <path d="M947.863 20.1765H927.594V141.298H947.863V20.1765Z" fill="#B45EFA" />
      <path d="M927.626 40.3796H907.358V161.501H927.626V40.3796Z" fill="#B45EFA" />
      <path d="M907.358 60.5502H887.089V181.672H907.358V60.5502Z" fill="#B45EFA" />
      <path d="M887.089 80.7537H866.82V201.875H887.089V80.7537Z" fill="#B45EFA" />
      <path d="M866.853 100.924H846.584V222.046H866.853V100.924Z" fill="#B45EFA" />
      <path d="M846.584 141.298H826.315V242.217H846.584V141.298Z" fill="#B45EFA" />
      <path d="M826.348 161.501H806.079V262.42H826.348V161.501Z" fill="#B45EFA" />
      <path d="M806.079 181.672H785.811V282.59H806.079V181.672Z" fill="#B45EFA" />
      <path d="M765.574 222.046H745.306V302.793H765.574V222.046Z" fill="#B45EFA" />
      <path d="M745.338 242.216H725.069V322.964H745.338V242.216Z" fill="#B45EFA" />
      <path d="M725.07 262.42H704.801V343.168H725.07V262.42Z" fill="#B45EFA" />
      <path d="M704.801 282.59H684.532V363.338H704.801V282.59Z" fill="#B45EFA" />
      <path d="M785.843 201.843H765.574V282.59H785.843V201.843Z" fill="#B45EFA" />
      <path d="M1211.16 100.924H1190.89V222.046H1211.16V100.924Z" fill="#B45EFA" />
      <path d="M1190.92 121.128H1170.66V242.249H1190.92V121.128Z" fill="#B45EFA" />
      <path d="M1170.66 141.298H1150.39V242.217H1170.66V141.298Z" fill="#B45EFA" />
      <path d="M1150.42 141.298H1130.15V242.217H1150.42V141.298Z" fill="#B45EFA" />
      <path d="M1130.15 161.501H1109.88V262.42H1130.15V161.501Z" fill="#B45EFA" />
      <path d="M1109.91 181.672H1089.65V282.59H1109.91V181.672Z" fill="#B45EFA" />
      <path d="M1089.65 181.672H1069.38V282.59H1089.65V181.672Z" fill="#B45EFA" />
      <path d="M1069.38 201.843H1049.11V302.761H1069.38V201.843Z" fill="#B45EFA" />
      <path d="M1049.14 222.046H1028.87V322.964H1049.14V222.046Z" fill="#B45EFA" />
      <path d="M1028.87 222.046H1008.6V322.964H1028.87V222.046Z" fill="#B45EFA" />
      <path d="M1008.64 242.216H988.367V343.135H1008.64V242.216Z" fill="#B45EFA" />
      <path d="M988.368 262.42H968.099V363.338H988.368V262.42Z" fill="#B45EFA" />
      <path d="M968.131 262.42H947.863V363.338H968.131V262.42Z" fill="#B45EFA" />
      <path d="M947.863 282.59H927.594V383.509H947.863V282.59Z" fill="#B45EFA" />
      <path d="M16.153 0.00585938H-4.11572V100.924H16.153V0.00585938Z" fill="#B45EFA" />
      <path d="M36.4214 0.00585938H16.1526V161.501H36.4214V0.00585938Z" fill="#B45EFA" />
      <path d="M36.3806 222.04H56.6494L56.6494 -1.52588e-05H36.3806L36.3806 222.04Z" fill="#B45EFA" />
      <path d="M56.6533 262.42H76.9221L76.9221 60.5836H56.6533L56.6533 262.42Z" fill="#B45EFA" />
      <path d="M76.8931 302.767H97.1619L97.1619 121.101H76.8931L76.8931 302.767Z" fill="#B45EFA" />
      <path d="M97.1653 363.347H117.434L117.434 201.851H97.1653L97.1653 363.347Z" fill="#B45EFA" />
      <path d="M117.405 423.879H137.674L137.674 262.384H117.405L117.405 423.879Z" fill="#B45EFA" />
      <path d="M238.979 121.127H218.71V545.004H238.979V121.127Z" fill="#B45EFA" />
      <path d="M178.205 0.00585938H157.936V141.298H178.205V0.00585938Z" fill="#B45EFA" />
      <path d="M198.441 0.00585938H178.172V262.42H198.441V0.00585938Z" fill="#B45EFA" />
      <path d="M218.71 0.00585938H198.441V383.509H218.71V0.00585938Z" fill="#B45EFA" />
    </g>
    <path
      d="M349.958 239.104C338.953 231.346 336.312 216.081 344.072 205.074L385.885 145.762C393.644 134.756 408.91 132.113 419.915 139.871L479.219 181.679C490.224 189.437 492.864 204.703 485.105 215.71L443.291 275.022C435.532 286.028 420.267 288.671 409.262 280.912L349.958 239.104Z"
      fill="#D5DDE1" />
    <path
      d="M358.535 234.337C346.657 225.964 343.807 209.487 352.182 197.607L389.35 144.885C397.725 133.005 414.201 130.152 426.08 138.526L478.794 175.689C490.673 184.063 493.523 200.54 485.148 212.42L447.98 265.142C439.605 277.022 423.128 279.874 411.25 271.5L358.535 234.337Z"
      fill="#202224" />
    <path
      d="M361.216 230.535C351.434 223.639 349.087 210.069 355.984 200.286L393.151 147.564C400.048 137.781 413.618 135.432 423.4 142.328L476.114 179.491C485.896 186.387 488.243 199.957 481.346 209.74L444.179 262.462C437.282 272.245 423.712 274.594 413.93 267.698L361.215 230.536L361.216 230.535Z"
      fill="#D5DDE1" />
    <path
      d="M358.76 210.392C362.442 207.591 366.69 205.646 370.918 203.808C375.794 201.69 380.611 199.44 385.451 197.241C403.351 189.108 421.095 180.616 439.048 172.605C444.697 170.085 450.409 167.723 456.144 165.412L423.4 142.329C413.618 135.433 400.049 137.782 393.152 147.565L355.984 200.287C353.318 204.068 352.039 208.414 352.031 212.723C354.259 211.915 356.515 211.164 358.76 210.392Z"
      fill="white" />
    <path
      d="M386.031 209.327C378.694 204.155 376.935 193.978 382.107 186.641L409.983 147.099C415.155 139.761 425.332 137.999 432.669 143.172L472.205 171.043C479.541 176.216 481.301 186.393 476.129 193.729L448.253 233.271C443.08 240.608 432.903 242.369 425.567 237.198L386.031 209.326L386.031 209.327Z"
      fill="#202224" />
    <path
      d="M469.316 174.571L429.78 146.7C424.532 142.999 417.277 144.255 413.576 149.505L385.701 189.046C382 194.296 383.255 201.55 388.503 205.25L428.039 233.122C433.288 236.823 440.543 235.567 444.243 230.317L472.119 190.776C475.82 185.527 474.565 178.272 469.316 174.571Z"
      fill="white" />
    <path
      d="M51.3329 9L-9.6493 25.3531L-26 86.3442L18.6493 131L79.6493 114.647L96 53.638L51.3329 9ZM18.0279 122.406L-17.3897 86.9657L31.0055 74.0039L18.0279 122.406ZM36.4558 75.4599L71.8911 110.9L23.4959 123.88L36.4558 75.4599ZM-1.89115 29.1173L46.5041 16.1378L33.5442 64.5401L-1.89115 29.1173ZM51.9543 17.6116L87.3897 53.0343L38.9945 65.9961L51.9543 17.6116ZM-5.88562 33.1124L29.5498 68.5529L-18.8455 81.5146L-5.88562 33.1124ZM75.8856 106.905L40.4502 71.4649L88.8455 58.5031L75.8856 106.905Z"
      fill="#231F20" />
  </g>
</svg>