<svg width="96" height="122" viewBox="0 0 96 122" fill="none" xmlns="http://www.w3.org/2000/svg">
  <path
    d="M51.3329 0L-9.6493 16.3531L-26 77.3442L18.6493 122L79.6493 105.647L96 44.638L51.3329 0ZM18.0279 113.406L-17.3897 77.9657L31.0055 65.0039L18.0279 113.406ZM36.4558 66.4599L71.8911 101.9L23.4959 114.88L36.4558 66.4599ZM-1.89115 20.1173L46.5041 7.13783L33.5442 55.5401L-1.89115 20.1173ZM51.9543 8.61156L87.3897 44.0343L38.9945 56.9961L51.9543 8.61156ZM-5.88562 24.1124L29.5498 59.5529L-18.8455 72.5146L-5.88562 24.1124ZM75.8856 97.9054L40.4502 62.4649L88.8455 49.5031L75.8856 97.9054Z"
    fill="#231F20" />
</svg>