<svg viewBox="0 0 1200 854" xmlns="http://www.w3.org/2000/svg">
  <circle cx="33.0372" cy="17.033" r="17.033" fill="#00A2F2"/>
  <ellipse cx="93.5337" cy="17.033" rx="17.6204" ry="17.033" fill="#00A2F2"/>
  <ellipse cx="152.268" cy="17.033" rx="16.4457" ry="17.033" fill="#00A2F2"/>
  <ellipse cx="212.765" cy="17.033" rx="15.8583" ry="17.033" fill="#00A2F2"/>
  <ellipse cx="272.087" cy="17.033" rx="16.4457" ry="17.033" fill="#00A2F2"/>
  <ellipse cx="331.996" cy="17.033" rx="16.4457" ry="17.033" fill="#00A2F2"/>
  <circle cx="391.318" cy="17.033" r="17.033" fill="#00A2F2"/>
  <ellipse cx="450.64" cy="17.033" rx="17.6204" ry="17.033" fill="#00A2F2"/>
  <ellipse cx="511.723" cy="17.033" rx="17.6204" ry="17.033" fill="#00A2F2"/>
  <ellipse cx="570.458" cy="17.033" rx="16.4457" ry="17.033" fill="#00A2F2"/>
  <ellipse cx="631.542" cy="17.033" rx="16.4457" ry="17.033" fill="#00A2F2"/>
  <ellipse cx="690.276" cy="17.033" rx="17.6204" ry="17.033" fill="#00A2F2"/>
  <ellipse cx="751.36" cy="17.033" rx="17.6204" ry="17.033" fill="#00A2F2"/>
  <circle cx="810.682" cy="17.033" r="17.033" fill="#00A2F2"/>
  <ellipse cx="870.004" cy="17.033" rx="16.4457" ry="17.033" fill="#00A2F2"/>
  <ellipse cx="929.913" cy="17.033" rx="16.4457" ry="17.033" fill="#00A2F2"/>
  <ellipse cx="989.235" cy="17.033" rx="15.8583" ry="17.033" fill="#00A2F2"/>
  <ellipse cx="1049.73" cy="17.033" rx="16.4457" ry="17.033" fill="#00A2F2"/>
  <ellipse cx="1108.47" cy="17.033" rx="17.6204" ry="17.033" fill="#00A2F2"/>
  <circle cx="1168.96" cy="17.033" r="17.033" fill="#00A2F2"/>
  <circle cx="33.0372" cy="69.8941" r="17.033" fill="#00A2F2"/>
  <ellipse cx="93.5337" cy="69.8941" rx="17.6204" ry="17.033" fill="#00A2F2"/>
  <ellipse cx="152.268" cy="69.8941" rx="16.4457" ry="17.033" fill="#00A2F2"/>
  <ellipse cx="212.765" cy="69.8941" rx="15.8583" ry="17.033" fill="#00A2F2"/>
  <ellipse cx="272.087" cy="69.8941" rx="16.4457" ry="17.033" fill="#00A2F2"/>
  <ellipse cx="331.996" cy="69.8941" rx="16.4457" ry="17.033" fill="#00A2F2"/>
  <circle cx="391.318" cy="69.8941" r="17.033" fill="#00A2F2"/>
  <ellipse cx="450.64" cy="69.8941" rx="17.6204" ry="17.033" fill="#00A2F2"/>
  <ellipse cx="511.723" cy="69.8941" rx="17.6204" ry="17.033" fill="#00A2F2"/>
  <ellipse cx="570.458" cy="69.8941" rx="16.4457" ry="17.033" fill="#00A2F2"/>
  <ellipse cx="631.542" cy="69.8941" rx="16.4457" ry="17.033" fill="#00A2F2"/>
  <ellipse cx="690.276" cy="69.8941" rx="17.6204" ry="17.033" fill="#00A2F2"/>
  <ellipse cx="751.36" cy="69.8941" rx="17.6204" ry="17.033" fill="#00A2F2"/>
  <circle cx="810.682" cy="69.8941" r="17.033" fill="#00A2F2"/>
  <ellipse cx="870.004" cy="69.8941" rx="16.4457" ry="17.033" fill="#00A2F2"/>
  <ellipse cx="929.913" cy="69.8941" rx="16.4457" ry="17.033" fill="#00A2F2"/>
  <ellipse cx="989.235" cy="69.8941" rx="15.8583" ry="17.033" fill="#00A2F2"/>
  <ellipse cx="1049.73" cy="69.8941" rx="16.4457" ry="17.033" fill="#00A2F2"/>
  <ellipse cx="1108.47" cy="69.8941" rx="17.6204" ry="17.033" fill="#00A2F2"/>
  <circle cx="1168.96" cy="69.8941" r="17.033" fill="#00A2F2"/>
  <circle cx="33.0372" cy="127.454" r="17.033" fill="#00A2F2"/>
  <ellipse cx="93.5337" cy="127.454" rx="17.6204" ry="17.033" fill="#00A2F2"/>
  <ellipse cx="152.268" cy="127.454" rx="16.4457" ry="17.033" fill="#00A2F2"/>
  <ellipse cx="212.765" cy="127.454" rx="15.8583" ry="17.033" fill="#00A2F2"/>
  <ellipse cx="272.087" cy="127.454" rx="16.4457" ry="17.033" fill="#00A2F2"/>
  <ellipse cx="331.996" cy="127.454" rx="16.4457" ry="17.033" fill="#00A2F2"/>
  <circle cx="391.318" cy="127.454" r="17.033" fill="#00A2F2"/>
  <ellipse cx="450.64" cy="127.454" rx="17.6204" ry="17.033" fill="#00A2F2"/>
  <ellipse cx="511.723" cy="127.454" rx="17.6204" ry="17.033" fill="#00A2F2"/>
  <ellipse cx="570.458" cy="127.454" rx="16.4457" ry="17.033" fill="#00A2F2"/>
  <ellipse cx="631.542" cy="127.454" rx="16.4457" ry="17.033" fill="#00A2F2"/>
  <ellipse cx="690.276" cy="127.454" rx="17.6204" ry="17.033" fill="#00A2F2"/>
  <ellipse cx="751.36" cy="127.454" rx="17.6204" ry="17.033" fill="#00A2F2"/>
  <circle cx="810.682" cy="127.454" r="17.033" fill="#00A2F2"/>
  <ellipse cx="870.004" cy="127.454" rx="16.4457" ry="17.033" fill="#00A2F2"/>
  <ellipse cx="929.913" cy="127.454" rx="16.4457" ry="17.033" fill="#00A2F2"/>
  <ellipse cx="989.235" cy="127.454" rx="15.8583" ry="17.033" fill="#00A2F2"/>
  <ellipse cx="1049.73" cy="127.454" rx="16.4457" ry="17.033" fill="#00A2F2"/>
  <ellipse cx="1108.47" cy="127.454" rx="17.6204" ry="17.033" fill="#00A2F2"/>
  <circle cx="1168.96" cy="127.454" r="17.033" fill="#00A2F2"/>
  <circle cx="33.0372" cy="181.49" r="17.033" fill="#00A2F2"/>
  <ellipse cx="93.5337" cy="181.49" rx="17.6204" ry="17.033" fill="#00A2F2"/>
  <ellipse cx="152.268" cy="181.49" rx="16.4457" ry="17.033" fill="#00A2F2"/>
  <ellipse cx="212.765" cy="181.49" rx="15.8583" ry="17.033" fill="#00A2F2"/>
  <ellipse cx="272.087" cy="181.49" rx="16.4457" ry="17.033" fill="#00A2F2"/>
  <ellipse cx="331.996" cy="181.49" rx="16.4457" ry="17.033" fill="#00A2F2"/>
  <circle cx="391.318" cy="181.49" r="17.033" fill="#00A2F2"/>
  <ellipse cx="450.64" cy="181.49" rx="17.6204" ry="17.033" fill="#00A2F2"/>
  <ellipse cx="511.723" cy="181.49" rx="17.6204" ry="17.033" fill="#00A2F2"/>
  <ellipse cx="570.458" cy="181.49" rx="16.4457" ry="17.033" fill="#00A2F2"/>
  <ellipse cx="631.542" cy="181.49" rx="16.4457" ry="17.033" fill="#00A2F2"/>
  <ellipse cx="690.276" cy="181.49" rx="17.6204" ry="17.033" fill="#00A2F2"/>
  <ellipse cx="751.36" cy="181.49" rx="17.6204" ry="17.033" fill="#00A2F2"/>
  <circle cx="810.682" cy="181.49" r="17.033" fill="#00A2F2"/>
  <ellipse cx="870.004" cy="181.49" rx="16.4457" ry="17.033" fill="#00A2F2"/>
  <ellipse cx="929.913" cy="181.49" rx="16.4457" ry="17.033" fill="#00A2F2"/>
  <ellipse cx="989.235" cy="181.49" rx="15.8583" ry="17.033" fill="#00A2F2"/>
  <ellipse cx="1049.73" cy="181.49" rx="16.4457" ry="17.033" fill="#00A2F2"/>
  <ellipse cx="1108.47" cy="181.49" rx="17.6204" ry="17.033" fill="#00A2F2"/>
  <circle cx="1168.96" cy="181.49" r="17.033" fill="#00A2F2"/>
  <ellipse cx="33.0372" cy="234.938" rx="17.033" ry="17.6204" fill="#00A2F2"/>
  <circle cx="93.5337" cy="234.938" r="17.6204" fill="#00A2F2"/>
  <ellipse cx="152.268" cy="234.938" rx="16.4457" ry="17.6204" fill="#00A2F2"/>
  <ellipse cx="212.765" cy="234.938" rx="15.8583" ry="17.6204" fill="#00A2F2"/>
  <ellipse cx="272.087" cy="234.938" rx="16.4457" ry="17.6204" fill="#00A2F2"/>
  <ellipse cx="331.996" cy="234.938" rx="16.4457" ry="17.6204" fill="#00A2F2"/>
  <ellipse cx="391.318" cy="234.938" rx="17.033" ry="17.6204" fill="#00A2F2"/>
  <circle cx="450.64" cy="234.938" r="17.6204" fill="#00A2F2"/>
  <circle cx="511.723" cy="234.938" r="17.6204" fill="#00A2F2"/>
  <ellipse cx="570.458" cy="234.938" rx="16.4457" ry="17.6204" fill="#00A2F2"/>
  <ellipse cx="631.542" cy="234.938" rx="16.4457" ry="17.6204" fill="#00A2F2"/>
  <circle cx="690.276" cy="234.938" r="17.6204" fill="#00A2F2"/>
  <circle cx="751.36" cy="234.938" r="17.6204" fill="#00A2F2"/>
  <ellipse cx="810.682" cy="234.938" rx="17.033" ry="17.6204" fill="#00A2F2"/>
  <ellipse cx="870.004" cy="234.938" rx="16.4457" ry="17.6204" fill="#00A2F2"/>
  <ellipse cx="929.913" cy="234.938" rx="16.4457" ry="17.6204" fill="#00A2F2"/>
  <ellipse cx="989.235" cy="234.938" rx="15.8583" ry="17.6204" fill="#00A2F2"/>
  <ellipse cx="1049.73" cy="234.938" rx="16.4457" ry="17.6204" fill="#00A2F2"/>
  <circle cx="1108.47" cy="234.938" r="17.6204" fill="#00A2F2"/>
  <ellipse cx="1168.96" cy="234.938" rx="17.033" ry="17.6204" fill="#00A2F2"/>
  <circle cx="33.0372" cy="289.561" r="17.033" fill="#00A2F2"/>
  <ellipse cx="93.5337" cy="289.561" rx="17.6204" ry="17.033" fill="#00A2F2"/>
  <ellipse cx="152.268" cy="289.561" rx="16.4457" ry="17.033" fill="#00A2F2"/>
  <ellipse cx="212.765" cy="289.561" rx="15.8583" ry="17.033" fill="#00A2F2"/>
  <ellipse cx="272.087" cy="289.561" rx="16.4457" ry="17.033" fill="#00A2F2"/>
  <ellipse cx="331.996" cy="289.561" rx="16.4457" ry="17.033" fill="#00A2F2"/>
  <circle cx="391.318" cy="289.561" r="17.033" fill="#00A2F2"/>
  <ellipse cx="450.64" cy="289.561" rx="17.6204" ry="17.033" fill="#00A2F2"/>
  <ellipse cx="511.723" cy="289.561" rx="17.6204" ry="17.033" fill="#00A2F2"/>
  <ellipse cx="570.458" cy="289.561" rx="16.4457" ry="17.033" fill="#00A2F2"/>
  <ellipse cx="631.542" cy="289.561" rx="16.4457" ry="17.033" fill="#00A2F2"/>
  <ellipse cx="690.276" cy="289.561" rx="17.6204" ry="17.033" fill="#00A2F2"/>
  <ellipse cx="751.36" cy="289.561" rx="17.6204" ry="17.033" fill="#00A2F2"/>
  <circle cx="810.682" cy="289.561" r="17.033" fill="#00A2F2"/>
  <ellipse cx="870.004" cy="289.561" rx="16.4457" ry="17.033" fill="#00A2F2"/>
  <ellipse cx="929.913" cy="289.561" rx="16.4457" ry="17.033" fill="#00A2F2"/>
  <ellipse cx="989.235" cy="289.561" rx="15.8583" ry="17.033" fill="#00A2F2"/>
  <ellipse cx="1049.73" cy="289.561" rx="16.4457" ry="17.033" fill="#00A2F2"/>
  <ellipse cx="1108.47" cy="289.561" rx="17.6204" ry="17.033" fill="#00A2F2"/>
  <circle cx="1168.96" cy="289.561" r="17.033" fill="#00A2F2"/>
  <ellipse cx="33.0372" cy="346.534" rx="17.033" ry="16.4457" fill="#00A2F2"/>
  <ellipse cx="93.5337" cy="346.534" rx="17.6204" ry="16.4457" fill="#00A2F2"/>
  <circle cx="152.268" cy="346.534" r="16.4457" fill="#00A2F2"/>
  <ellipse cx="212.765" cy="346.534" rx="15.8583" ry="16.4457" fill="#00A2F2"/>
  <circle cx="272.087" cy="346.534" r="16.4457" fill="#00A2F2"/>
  <circle cx="331.996" cy="346.534" r="16.4457" fill="#00A2F2"/>
  <ellipse cx="391.318" cy="346.534" rx="17.033" ry="16.4457" fill="#00A2F2"/>
  <ellipse cx="450.64" cy="346.534" rx="17.6204" ry="16.4457" fill="#00A2F2"/>
  <ellipse cx="511.723" cy="346.534" rx="17.6204" ry="16.4457" fill="#00A2F2"/>
  <circle cx="570.458" cy="346.534" r="16.4457" fill="#00A2F2"/>
  <circle cx="631.542" cy="346.534" r="16.4457" fill="#00A2F2"/>
  <ellipse cx="690.276" cy="346.534" rx="17.6204" ry="16.4457" fill="#00A2F2"/>
  <ellipse cx="751.36" cy="346.534" rx="17.6204" ry="16.4457" fill="#00A2F2"/>
  <ellipse cx="810.682" cy="346.534" rx="17.033" ry="16.4457" fill="#00A2F2"/>
  <circle cx="870.004" cy="346.534" r="16.4457" fill="#00A2F2"/>
  <circle cx="929.913" cy="346.534" r="16.4457" fill="#00A2F2"/>
  <ellipse cx="989.235" cy="346.534" rx="15.8583" ry="16.4457" fill="#00A2F2"/>
  <circle cx="1049.73" cy="346.534" r="16.4457" fill="#00A2F2"/>
  <ellipse cx="1108.47" cy="346.534" rx="17.6204" ry="16.4457" fill="#00A2F2"/>
  <ellipse cx="1168.96" cy="346.534" rx="17.033" ry="16.4457" fill="#00A2F2"/>
  <ellipse cx="33.0372" cy="399.395" rx="17.033" ry="17.6204" fill="#00A2F2"/>
  <circle cx="93.5337" cy="399.395" r="17.6204" fill="#00A2F2"/>
  <ellipse cx="152.268" cy="399.395" rx="16.4457" ry="17.6204" fill="#00A2F2"/>
  <ellipse cx="212.765" cy="399.395" rx="15.8583" ry="17.6204" fill="#00A2F2"/>
  <ellipse cx="272.087" cy="399.395" rx="16.4457" ry="17.6204" fill="#00A2F2"/>
  <ellipse cx="331.996" cy="399.395" rx="16.4457" ry="17.6204" fill="#00A2F2"/>
  <ellipse cx="391.318" cy="399.395" rx="17.033" ry="17.6204" fill="#00A2F2"/>
  <circle cx="450.64" cy="399.395" r="17.6204" fill="#00A2F2"/>
  <circle cx="511.723" cy="399.395" r="17.6204" fill="#00A2F2"/>
  <ellipse cx="570.458" cy="399.395" rx="16.4457" ry="17.6204" fill="#00A2F2"/>
  <ellipse cx="631.542" cy="399.395" rx="16.4457" ry="17.6204" fill="#00A2F2"/>
  <circle cx="690.276" cy="399.395" r="17.6204" fill="#00A2F2"/>
  <circle cx="751.36" cy="399.395" r="17.6204" fill="#00A2F2"/>
  <ellipse cx="810.682" cy="399.395" rx="17.033" ry="17.6204" fill="#00A2F2"/>
  <ellipse cx="870.004" cy="399.395" rx="16.4457" ry="17.6204" fill="#00A2F2"/>
  <ellipse cx="929.913" cy="399.395" rx="16.4457" ry="17.6204" fill="#00A2F2"/>
  <ellipse cx="989.235" cy="399.395" rx="15.8583" ry="17.6204" fill="#00A2F2"/>
  <ellipse cx="1049.73" cy="399.395" rx="16.4457" ry="17.6204" fill="#00A2F2"/>
  <circle cx="1108.47" cy="399.395" r="17.6204" fill="#00A2F2"/>
  <ellipse cx="1168.96" cy="399.395" rx="17.033" ry="17.6204" fill="#00A2F2"/>
  <ellipse cx="33.0372" cy="454.605" rx="17.033" ry="17.6204" fill="#00A2F2"/>
  <circle cx="93.5337" cy="454.605" r="17.6204" fill="#00A2F2"/>
  <ellipse cx="152.268" cy="454.605" rx="16.4457" ry="17.6204" fill="#00A2F2"/>
  <ellipse cx="212.765" cy="454.605" rx="15.8583" ry="17.6204" fill="#00A2F2"/>
  <ellipse cx="272.087" cy="454.605" rx="16.4457" ry="17.6204" fill="#00A2F2"/>
  <ellipse cx="331.996" cy="454.605" rx="16.4457" ry="17.6204" fill="#00A2F2"/>
  <ellipse cx="391.318" cy="454.605" rx="17.033" ry="17.6204" fill="#00A2F2"/>
  <circle cx="450.64" cy="454.605" r="17.6204" fill="#00A2F2"/>
  <circle cx="511.723" cy="454.605" r="17.6204" fill="#00A2F2"/>
  <ellipse cx="570.458" cy="454.605" rx="16.4457" ry="17.6204" fill="#00A2F2"/>
  <ellipse cx="631.542" cy="454.605" rx="16.4457" ry="17.6204" fill="#00A2F2"/>
  <circle cx="690.276" cy="454.605" r="17.6204" fill="#00A2F2"/>
  <circle cx="751.36" cy="454.605" r="17.6204" fill="#00A2F2"/>
  <ellipse cx="810.682" cy="454.605" rx="17.033" ry="17.6204" fill="#00A2F2"/>
  <ellipse cx="870.004" cy="454.605" rx="16.4457" ry="17.6204" fill="#00A2F2"/>
  <ellipse cx="929.913" cy="454.605" rx="16.4457" ry="17.6204" fill="#00A2F2"/>
  <ellipse cx="989.235" cy="454.605" rx="15.8583" ry="17.6204" fill="#00A2F2"/>
  <ellipse cx="1049.73" cy="454.605" rx="16.4457" ry="17.6204" fill="#00A2F2"/>
  <circle cx="1108.47" cy="454.605" r="17.6204" fill="#00A2F2"/>
  <ellipse cx="1168.96" cy="454.605" rx="17.033" ry="17.6204" fill="#00A2F2"/>
  <ellipse cx="33.0372" cy="507.466" rx="17.033" ry="16.4457" fill="#00A2F2"/>
  <ellipse cx="93.5337" cy="507.466" rx="17.6204" ry="16.4457" fill="#00A2F2"/>
  <circle cx="152.268" cy="507.466" r="16.4457" fill="#00A2F2"/>
  <ellipse cx="212.765" cy="507.466" rx="15.8583" ry="16.4457" fill="#00A2F2"/>
  <circle cx="272.087" cy="507.466" r="16.4457" fill="#00A2F2"/>
  <circle cx="331.996" cy="507.466" r="16.4457" fill="#00A2F2"/>
  <ellipse cx="391.318" cy="507.466" rx="17.033" ry="16.4457" fill="#00A2F2"/>
  <ellipse cx="450.64" cy="507.466" rx="17.6204" ry="16.4457" fill="#00A2F2"/>
  <ellipse cx="511.723" cy="507.466" rx="17.6204" ry="16.4457" fill="#00A2F2"/>
  <circle cx="570.458" cy="507.466" r="16.4457" fill="#00A2F2"/>
  <circle cx="631.542" cy="507.466" r="16.4457" fill="#00A2F2"/>
  <ellipse cx="690.276" cy="507.466" rx="17.6204" ry="16.4457" fill="#00A2F2"/>
  <ellipse cx="751.36" cy="507.466" rx="17.6204" ry="16.4457" fill="#00A2F2"/>
  <ellipse cx="810.682" cy="507.466" rx="17.033" ry="16.4457" fill="#00A2F2"/>
  <circle cx="870.004" cy="507.466" r="16.4457" fill="#00A2F2"/>
  <circle cx="929.913" cy="507.466" r="16.4457" fill="#00A2F2"/>
  <ellipse cx="989.235" cy="507.466" rx="15.8583" ry="16.4457" fill="#00A2F2"/>
  <circle cx="1049.73" cy="507.466" r="16.4457" fill="#00A2F2"/>
  <ellipse cx="1108.47" cy="507.466" rx="17.6204" ry="16.4457" fill="#00A2F2"/>
  <ellipse cx="1168.96" cy="507.466" rx="17.033" ry="16.4457" fill="#00A2F2"/>
  <circle cx="33.0372" cy="564.439" r="17.033" fill="#00A2F2"/>
  <ellipse cx="93.5337" cy="564.439" rx="17.6204" ry="17.033" fill="#00A2F2"/>
  <ellipse cx="152.268" cy="564.439" rx="16.4457" ry="17.033" fill="#00A2F2"/>
  <ellipse cx="212.765" cy="564.439" rx="15.8583" ry="17.033" fill="#00A2F2"/>
  <ellipse cx="272.087" cy="564.439" rx="16.4457" ry="17.033" fill="#00A2F2"/>
  <ellipse cx="331.996" cy="564.439" rx="16.4457" ry="17.033" fill="#00A2F2"/>
  <circle cx="391.318" cy="564.439" r="17.033" fill="#00A2F2"/>
  <ellipse cx="450.64" cy="564.439" rx="17.6204" ry="17.033" fill="#00A2F2"/>
  <ellipse cx="511.723" cy="564.439" rx="17.6204" ry="17.033" fill="#00A2F2"/>
  <ellipse cx="570.458" cy="564.439" rx="16.4457" ry="17.033" fill="#00A2F2"/>
  <ellipse cx="631.542" cy="564.439" rx="16.4457" ry="17.033" fill="#00A2F2"/>
  <ellipse cx="690.276" cy="564.439" rx="17.6204" ry="17.033" fill="#00A2F2"/>
  <ellipse cx="751.36" cy="564.439" rx="17.6204" ry="17.033" fill="#00A2F2"/>
  <circle cx="810.682" cy="564.439" r="17.033" fill="#00A2F2"/>
  <ellipse cx="870.004" cy="564.439" rx="16.4457" ry="17.033" fill="#00A2F2"/>
  <ellipse cx="929.913" cy="564.439" rx="16.4457" ry="17.033" fill="#00A2F2"/>
  <ellipse cx="989.235" cy="564.439" rx="15.8583" ry="17.033" fill="#00A2F2"/>
  <ellipse cx="1049.73" cy="564.439" rx="16.4457" ry="17.033" fill="#00A2F2"/>
  <ellipse cx="1108.47" cy="564.439" rx="17.6204" ry="17.033" fill="#00A2F2"/>
  <circle cx="1168.96" cy="564.439" r="17.033" fill="#00A2F2"/>
  <ellipse cx="33.0372" cy="619.062" rx="17.033" ry="17.6204" fill="#00A2F2"/>
  <circle cx="93.5337" cy="619.062" r="17.6204" fill="#00A2F2"/>
  <ellipse cx="152.268" cy="619.062" rx="16.4457" ry="17.6204" fill="#00A2F2"/>
  <ellipse cx="212.765" cy="619.062" rx="15.8583" ry="17.6204" fill="#00A2F2"/>
  <ellipse cx="272.087" cy="619.062" rx="16.4457" ry="17.6204" fill="#00A2F2"/>
  <ellipse cx="331.996" cy="619.062" rx="16.4457" ry="17.6204" fill="#00A2F2"/>
  <ellipse cx="391.318" cy="619.062" rx="17.033" ry="17.6204" fill="#00A2F2"/>
  <circle cx="450.64" cy="619.062" r="17.6204" fill="#00A2F2"/>
  <circle cx="511.723" cy="619.062" r="17.6204" fill="#00A2F2"/>
  <ellipse cx="570.458" cy="619.062" rx="16.4457" ry="17.6204" fill="#00A2F2"/>
  <ellipse cx="631.542" cy="619.062" rx="16.4457" ry="17.6204" fill="#00A2F2"/>
  <circle cx="690.276" cy="619.062" r="17.6204" fill="#00A2F2"/>
  <circle cx="751.36" cy="619.062" r="17.6204" fill="#00A2F2"/>
  <ellipse cx="810.682" cy="619.062" rx="17.033" ry="17.6204" fill="#00A2F2"/>
  <ellipse cx="870.004" cy="619.062" rx="16.4457" ry="17.6204" fill="#00A2F2"/>
  <ellipse cx="929.913" cy="619.062" rx="16.4457" ry="17.6204" fill="#00A2F2"/>
  <ellipse cx="989.235" cy="619.062" rx="15.8583" ry="17.6204" fill="#00A2F2"/>
  <ellipse cx="1049.73" cy="619.062" rx="16.4457" ry="17.6204" fill="#00A2F2"/>
  <circle cx="1108.47" cy="619.062" r="17.6204" fill="#00A2F2"/>
  <ellipse cx="1168.96" cy="619.062" rx="17.033" ry="17.6204" fill="#00A2F2"/>
  <circle cx="33.0372" cy="672.51" r="17.033" fill="#00A2F2"/>
  <ellipse cx="93.5337" cy="672.51" rx="17.6204" ry="17.033" fill="#00A2F2"/>
  <ellipse cx="152.268" cy="672.51" rx="16.4457" ry="17.033" fill="#00A2F2"/>
  <ellipse cx="212.765" cy="672.51" rx="15.8583" ry="17.033" fill="#00A2F2"/>
  <ellipse cx="272.087" cy="672.51" rx="16.4457" ry="17.033" fill="#00A2F2"/>
  <ellipse cx="331.996" cy="672.51" rx="16.4457" ry="17.033" fill="#00A2F2"/>
  <circle cx="391.318" cy="672.51" r="17.033" fill="#00A2F2"/>
  <ellipse cx="450.64" cy="672.51" rx="17.6204" ry="17.033" fill="#00A2F2"/>
  <ellipse cx="511.723" cy="672.51" rx="17.6204" ry="17.033" fill="#00A2F2"/>
  <ellipse cx="570.458" cy="672.51" rx="16.4457" ry="17.033" fill="#00A2F2"/>
  <ellipse cx="631.542" cy="672.51" rx="16.4457" ry="17.033" fill="#00A2F2"/>
  <ellipse cx="690.276" cy="672.51" rx="17.6204" ry="17.033" fill="#00A2F2"/>
  <ellipse cx="751.36" cy="672.51" rx="17.6204" ry="17.033" fill="#00A2F2"/>
  <circle cx="810.682" cy="672.51" r="17.033" fill="#00A2F2"/>
  <ellipse cx="870.004" cy="672.51" rx="16.4457" ry="17.033" fill="#00A2F2"/>
  <ellipse cx="929.913" cy="672.51" rx="16.4457" ry="17.033" fill="#00A2F2"/>
  <ellipse cx="989.235" cy="672.51" rx="15.8583" ry="17.033" fill="#00A2F2"/>
  <ellipse cx="1049.73" cy="672.51" rx="16.4457" ry="17.033" fill="#00A2F2"/>
  <ellipse cx="1108.47" cy="672.51" rx="17.6204" ry="17.033" fill="#00A2F2"/>
  <circle cx="1168.96" cy="672.51" r="17.033" fill="#00A2F2"/>
  <circle cx="33.0372" cy="726.546" r="17.033" fill="#00A2F2"/>
  <ellipse cx="93.5337" cy="726.546" rx="17.6204" ry="17.033" fill="#00A2F2"/>
  <ellipse cx="152.268" cy="726.546" rx="16.4457" ry="17.033" fill="#00A2F2"/>
  <ellipse cx="212.765" cy="726.546" rx="15.8583" ry="17.033" fill="#00A2F2"/>
  <ellipse cx="272.087" cy="726.546" rx="16.4457" ry="17.033" fill="#00A2F2"/>
  <ellipse cx="331.996" cy="726.546" rx="16.4457" ry="17.033" fill="#00A2F2"/>
  <circle cx="391.318" cy="726.546" r="17.033" fill="#00A2F2"/>
  <ellipse cx="450.64" cy="726.546" rx="17.6204" ry="17.033" fill="#00A2F2"/>
  <ellipse cx="511.723" cy="726.546" rx="17.6204" ry="17.033" fill="#00A2F2"/>
  <ellipse cx="570.458" cy="726.546" rx="16.4457" ry="17.033" fill="#00A2F2"/>
  <ellipse cx="631.542" cy="726.546" rx="16.4457" ry="17.033" fill="#00A2F2"/>
  <ellipse cx="690.276" cy="726.546" rx="17.6204" ry="17.033" fill="#00A2F2"/>
  <ellipse cx="751.36" cy="726.546" rx="17.6204" ry="17.033" fill="#00A2F2"/>
  <circle cx="810.682" cy="726.546" r="17.033" fill="#00A2F2"/>
  <ellipse cx="870.004" cy="726.546" rx="16.4457" ry="17.033" fill="#00A2F2"/>
  <ellipse cx="929.913" cy="726.546" rx="16.4457" ry="17.033" fill="#00A2F2"/>
  <ellipse cx="989.235" cy="726.546" rx="15.8583" ry="17.033" fill="#00A2F2"/>
  <ellipse cx="1049.73" cy="726.546" rx="16.4457" ry="17.033" fill="#00A2F2"/>
  <ellipse cx="1108.47" cy="726.546" rx="17.6204" ry="17.033" fill="#00A2F2"/>
  <circle cx="1168.96" cy="726.546" r="17.033" fill="#00A2F2"/>
  <circle cx="33.0372" cy="784.106" r="17.033" fill="#00A2F2"/>
  <ellipse cx="93.5337" cy="784.106" rx="17.6204" ry="17.033" fill="#00A2F2"/>
  <ellipse cx="152.268" cy="784.106" rx="16.4457" ry="17.033" fill="#00A2F2"/>
  <ellipse cx="212.765" cy="784.106" rx="15.8583" ry="17.033" fill="#00A2F2"/>
  <ellipse cx="272.087" cy="784.106" rx="16.4457" ry="17.033" fill="#00A2F2"/>
  <ellipse cx="331.996" cy="784.106" rx="16.4457" ry="17.033" fill="#00A2F2"/>
  <circle cx="391.318" cy="784.106" r="17.033" fill="#00A2F2"/>
  <ellipse cx="450.64" cy="784.106" rx="17.6204" ry="17.033" fill="#00A2F2"/>
  <ellipse cx="511.723" cy="784.106" rx="17.6204" ry="17.033" fill="#00A2F2"/>
  <ellipse cx="570.458" cy="784.106" rx="16.4457" ry="17.033" fill="#00A2F2"/>
  <ellipse cx="631.542" cy="784.106" rx="16.4457" ry="17.033" fill="#00A2F2"/>
  <ellipse cx="690.276" cy="784.106" rx="17.6204" ry="17.033" fill="#00A2F2"/>
  <ellipse cx="751.36" cy="784.106" rx="17.6204" ry="17.033" fill="#00A2F2"/>
  <circle cx="810.682" cy="784.106" r="17.033" fill="#00A2F2"/>
  <ellipse cx="870.004" cy="784.106" rx="16.4457" ry="17.033" fill="#00A2F2"/>
  <ellipse cx="929.913" cy="784.106" rx="16.4457" ry="17.033" fill="#00A2F2"/>
  <ellipse cx="989.235" cy="784.106" rx="15.8583" ry="17.033" fill="#00A2F2"/>
  <ellipse cx="1049.73" cy="784.106" rx="16.4457" ry="17.033" fill="#00A2F2"/>
  <ellipse cx="1108.47" cy="784.106" rx="17.6204" ry="17.033" fill="#00A2F2"/>
  <circle cx="1168.96" cy="784.106" r="17.033" fill="#00A2F2"/>
  <circle cx="33.0372" cy="836.967" r="17.033" fill="#00A2F2"/>
  <ellipse cx="93.5337" cy="836.967" rx="17.6204" ry="17.033" fill="#00A2F2"/>
  <ellipse cx="152.268" cy="836.967" rx="16.4457" ry="17.033" fill="#00A2F2"/>
  <ellipse cx="212.765" cy="836.967" rx="15.8583" ry="17.033" fill="#00A2F2"/>
  <ellipse cx="272.087" cy="836.967" rx="16.4457" ry="17.033" fill="#00A2F2"/>
  <ellipse cx="331.996" cy="836.967" rx="16.4457" ry="17.033" fill="#00A2F2"/>
  <circle cx="391.318" cy="836.967" r="17.033" fill="#00A2F2"/>
  <ellipse cx="450.64" cy="836.967" rx="17.6204" ry="17.033" fill="#00A2F2"/>
  <ellipse cx="511.723" cy="836.967" rx="17.6204" ry="17.033" fill="#00A2F2"/>
  <ellipse cx="570.458" cy="836.967" rx="16.4457" ry="17.033" fill="#00A2F2"/>
  <ellipse cx="631.542" cy="836.967" rx="16.4457" ry="17.033" fill="#00A2F2"/>
  <ellipse cx="690.276" cy="836.967" rx="17.6204" ry="17.033" fill="#00A2F2"/>
  <ellipse cx="751.36" cy="836.967" rx="17.6204" ry="17.033" fill="#00A2F2"/>
  <circle cx="810.682" cy="836.967" r="17.033" fill="#00A2F2"/>
  <ellipse cx="870.004" cy="836.967" rx="16.4457" ry="17.033" fill="#00A2F2"/>
  <ellipse cx="929.913" cy="836.967" rx="16.4457" ry="17.033" fill="#00A2F2"/>
  <ellipse cx="989.235" cy="836.967" rx="15.8583" ry="17.033" fill="#00A2F2"/>
  <ellipse cx="1049.73" cy="836.967" rx="16.4457" ry="17.033" fill="#00A2F2"/>
  <ellipse cx="1108.47" cy="836.967" rx="17.6204" ry="17.033" fill="#00A2F2"/>
  <circle cx="1168.96" cy="836.967" r="17.033" fill="#00A2F2"/>
</svg>
