<svg width="172" height="173" viewBox="0 0 172 173" fill="none" xmlns="http://www.w3.org/2000/svg">
  <path
    d="M19.9578 117.104C8.95281 109.346 6.31237 94.0806 14.0717 83.0741L55.8852 23.7622C63.6445 12.7557 78.9098 10.1132 89.9147 17.8714L149.219 59.6793C160.224 67.4375 162.864 82.7031 155.105 93.7096L113.291 153.022C105.532 164.028 90.2666 166.671 79.2616 158.912L19.9578 117.104Z"
    fill="#D5DDE1" />
  <path
    d="M28.5351 112.338C16.6568 103.964 13.8068 87.4866 22.1819 75.6066L59.3497 22.8846C67.7248 11.0047 84.2013 8.15246 96.0797 16.5264L148.794 53.6891C160.673 62.063 163.523 78.54 155.148 90.42L117.98 143.142C109.605 155.022 93.1283 157.874 81.2499 149.5L28.5351 112.338Z"
    fill="#202224" />
  <path
    d="M31.2158 108.535C21.4339 101.639 19.0867 88.0688 25.9837 78.2856L63.1509 25.5643C70.0479 15.7811 83.6176 13.432 93.3995 20.3281L146.114 57.4908C155.896 64.3868 158.243 77.9568 151.346 87.7401L114.179 140.462C107.282 150.245 93.712 152.594 83.9301 145.698L31.2153 108.536L31.2158 108.535Z"
    fill="#D5DDE1" />
  <path
    d="M28.7605 88.3921C32.4417 85.591 36.6898 83.6456 40.9184 81.8084C45.7938 79.6904 50.6108 77.4402 55.4513 75.2407C73.3506 67.1081 91.0946 58.6161 109.048 50.6055C114.697 48.0847 120.409 45.7226 126.144 43.4121L93.4003 20.3287C83.6184 13.4327 70.0486 15.7817 63.1517 25.5649L25.9839 78.287C23.3182 82.0681 22.0389 86.4144 22.0311 90.7226C24.2594 89.9152 26.5148 89.1636 28.7605 88.3921Z"
    fill="white" />
  <path
    d="M56.0309 87.3267C48.6943 82.1546 46.9347 71.9776 52.107 64.6407L79.9832 25.0986C85.1548 17.7612 95.3321 15.9994 102.669 21.1716L142.205 49.0435C149.541 54.2156 151.301 64.3926 146.129 71.7295L118.253 111.271C113.08 118.608 102.903 120.369 95.5674 115.198L56.0315 87.3259L56.0309 87.3267Z"
    fill="#202224" />
  <path
    d="M139.316 52.5715L99.7804 24.6996C94.5315 20.9992 87.2772 22.255 83.5763 27.5046L55.7007 67.046C51.9998 72.2956 53.2546 79.5501 58.5035 83.2504L98.0394 111.122C103.288 114.823 110.543 113.567 114.243 108.317L142.119 68.7759C145.82 63.5271 144.565 56.2718 139.316 52.5715Z"
    fill="white" />
</svg>