<svg width="129" height="201" viewBox="0 0 129 201" fill="none" xmlns="http://www.w3.org/2000/svg">
  <path
    d="M-47.8193 136.015C-60.6014 127.004 -63.6682 109.273 -54.6559 96.4892L-6.09025 27.5995C2.92203 14.8156 20.6524 11.7464 33.4344 20.7575L102.315 69.3165C115.097 78.3275 118.164 96.0583 109.151 108.842L60.5857 177.732C51.5734 190.516 33.8431 193.585 21.0611 184.574L-47.8193 136.015Z"
    fill="#D5DDE1" />
  <path
    d="M-37.8569 130.478C-51.6534 120.752 -54.9635 101.614 -45.236 87.8158L-2.06633 26.5802C7.66118 12.7818 26.7984 9.46902 40.5949 19.1952L101.822 62.359C115.619 72.0852 118.929 91.2229 109.201 105.021L66.0316 166.257C56.3041 180.055 37.1669 183.368 23.3704 173.642L-37.8569 130.478Z"
    fill="#202224" />
  <path
    d="M-34.7433 126.061C-46.1048 118.052 -48.831 102.29 -40.8203 90.9274L2.34873 29.6926C10.3594 18.3296 26.1204 15.6012 37.4819 23.6108L98.7092 66.7746C110.071 74.7842 112.797 90.5456 104.786 101.909L61.6166 163.144C53.6059 174.507 37.8449 177.236 26.4833 169.226L-34.744 126.062L-34.7433 126.061Z"
    fill="#D5DDE1" />
  <path
    d="M-37.5952 102.666C-33.3195 99.4125 -28.3854 97.1528 -23.474 95.019C-17.8113 92.559 -12.2164 89.9454 -6.59429 87.3908C14.1954 77.9449 34.8048 68.0816 55.6569 58.7774C62.2189 55.8495 68.8531 53.106 75.5138 50.4224L37.4828 23.6115C26.1213 15.6018 10.3603 18.3302 2.34958 29.6933L-40.8201 90.9289C-43.9162 95.3207 -45.4022 100.369 -45.4112 105.373C-42.823 104.435 -40.2035 103.562 -37.5952 102.666Z"
    fill="white" />
  <path
    d="M-5.92099 101.428C-14.4424 95.421 -16.4861 83.6007 -10.4785 75.079L21.8992 29.1516C27.9058 20.6293 39.7266 18.5831 48.2479 24.5905L94.1682 56.9631C102.69 62.9705 104.733 74.7909 98.7257 83.3125L66.3486 129.239C60.3404 137.762 48.5203 139.807 39.9999 133.8L-5.92035 101.427L-5.92099 101.428Z"
    fill="#202224" />
  <path
    d="M91.0553 61.3788L45.135 29.0061C39.0385 24.7082 30.6128 26.1667 26.3143 32.2641L-6.06284 78.1906C-10.3613 84.288 -8.90395 92.7139 -2.8074 97.0118L43.1128 129.384C49.2094 133.682 57.6351 132.224 61.9336 126.126L94.3107 80.2C98.6086 74.1035 97.1518 65.6767 91.0553 61.3788Z"
    fill="white" />
</svg>