<svg viewBox="0 0 1200 695" fill="none" xmlns="http://www.w3.org/2000/svg">
  <mask id="mask0" mask-type="alpha" maskUnits="userSpaceOnUse" x="0" y="0" width="1200" height="695">
    <rect width="1200" height="695" fill="#C4C4C4" />
  </mask>
  <g mask="url(#mask0)">
    <mask id="mask1" mask-type="alpha" maskUnits="userSpaceOnUse" x="0" y="-233" width="1200" height="928">
      <rect width="1200" height="695" fill="#A069F7" />
      <path fill-rule="evenodd" clip-rule="evenodd"
        d="M0 -233L50 -185C100 -137 200 -41 300 -11C400 19 500 -17 600 -65C700 -113 800 -173 900 -197C1000 -221 1100 -209 1150 -203L1200 -197V55H1150C1100 55 1000 55 900 55C800 55 700 55 600 55C500 55 400 55 300 55C200 55 100 55 50 55H0V-233Z"
        fill="#A069F7" />
    </mask>
    <g mask="url(#mask1)">
      <rect width="1200" height="695" fill="#A069F7" />
      <path fill-rule="evenodd" clip-rule="evenodd"
        d="M0 -233L50 -185C100 -137 200 -41 300 -11C400 19 500 -17 600 -65C700 -113 800 -173 900 -197C1000 -221 1100 -209 1150 -203L1200 -197V55H1150C1100 55 1000 55 900 55C800 55 700 55 600 55C500 55 400 55 300 55C200 55 100 55 50 55H0V-233Z"
        fill="#A069F7" />
      <path d="M1251.67 -232.995H-713V1240.5H1251.67V-232.995Z" fill="#9658F8" />
      <path d="M482.008 -172.45H461.739V29.3868H482.008V-172.45Z" fill="#B45EFA" />
      <path d="M461.772 -111.872H441.503V69.7936H461.772V-111.872Z" fill="#B45EFA" />
      <path d="M441.503 -31.1573H421.234V130.338H441.503V-31.1573Z" fill="#B45EFA" />
      <path d="M421.267 29.4198H400.998V190.915H421.267V29.4198Z" fill="#B45EFA" />
      <path d="M400.998 110.135H380.729V231.256H400.998V110.135Z" fill="#B45EFA" />
      <path d="M380.762 170.712H360.493V271.63H380.762V170.712Z" fill="#B45EFA" />
      <path d="M360.493 231.257H340.224V332.175H360.493V231.257Z" fill="#B45EFA" />
      <path d="M340.224 312.004H319.955V372.549H340.224V312.004Z" fill="#B45EFA" />
      <path d="M319.989 -111.872H299.72V312.004H319.989V-111.872Z" fill="#B45EFA" />
      <path d="M299.719 190.882H279.451V372.549H299.719V190.882Z" fill="#B45EFA" />
      <path d="M360.493 -232.994H340.224V29.4197H360.493V-232.994Z" fill="#B45EFA" />
      <path d="M340.224 -232.994H319.955V150.509H340.224V-232.994Z" fill="#B45EFA" />
      <path d="M623.791 -91.7017H603.522V29.42H623.791V-91.7017Z" fill="#B45EFA" />
      <path d="M603.555 -51.328H583.286V49.5903H603.555V-51.328Z" fill="#B45EFA" />
      <path d="M583.286 -10.9545H563.017V69.7933H583.286V-10.9545Z" fill="#B45EFA" />
      <path d="M583.286 -10.9545H563.017V89.9639H583.286V-10.9545Z" fill="#B45EFA" />
      <path d="M563.05 29.4198H542.781V130.338H563.05V29.4198Z" fill="#B45EFA" />
      <path d="M542.781 69.7933H522.512V150.541H542.781V69.7933Z" fill="#B45EFA" />
      <path d="M522.513 89.9642H502.244V170.712H522.513V89.9642Z" fill="#B45EFA" />
      <path d="M502.276 130.338H482.008V190.882H502.276V130.338Z" fill="#B45EFA" />
      <path d="M482.008 150.509H461.739V231.256H482.008V150.509Z" fill="#B45EFA" />
      <path d="M461.772 190.882H441.503V271.63H461.772V190.882Z" fill="#B45EFA" />
      <path d="M441.503 231.257H421.234V291.801H441.503V231.257Z" fill="#B45EFA" />
      <path d="M421.267 271.63H400.998V332.175H421.267V271.63Z" fill="#B45EFA" />
      <path d="M400.998 312.004H380.729V352.378H400.998V312.004Z" fill="#B45EFA" />
      <path d="M380.762 332.175H360.493V372.549H380.762V332.175Z" fill="#B45EFA" />
      <path d="M846.584 -91.7017H826.315V9.21666H846.584V-91.7017Z" fill="#B45EFA" />
      <path d="M826.348 -71.4988H806.079V29.4195H826.348V-71.4988Z" fill="#B45EFA" />
      <path d="M806.079 -51.328H785.811V49.5903H806.079V-51.328Z" fill="#B45EFA" />
      <path d="M765.574 -10.9545H745.306V69.7933H765.574V-10.9545Z" fill="#B45EFA" />
      <path d="M745.338 9.21631H725.069V89.9641H745.338V9.21631Z" fill="#B45EFA" />
      <path d="M725.069 29.4198H704.801V110.168H725.069V29.4198Z" fill="#B45EFA" />
      <path d="M704.801 49.5905H684.532V130.338H704.801V49.5905Z" fill="#B45EFA" />
      <path d="M684.565 69.7933H664.296V150.541H684.565V69.7933Z" fill="#B45EFA" />
      <path d="M664.296 89.9642H644.027V170.712H664.296V89.9642Z" fill="#B45EFA" />
      <path d="M644.06 130.338H623.791V190.882H644.06V130.338Z" fill="#B45EFA" />
      <path d="M623.791 150.509H603.522V211.053H623.791V150.509Z" fill="#B45EFA" />
      <path d="M603.555 170.712H583.286V231.256H603.555V170.712Z" fill="#B45EFA" />
      <path d="M583.286 190.882H563.017V251.427H583.286V190.882Z" fill="#B45EFA" />
      <path d="M563.05 211.086H542.781V271.63H563.05V211.086Z" fill="#B45EFA" />
      <path d="M542.781 231.257H522.512V271.63H542.781V231.257Z" fill="#B45EFA" />
      <path d="M522.513 251.459H502.244V291.833H522.513V251.459Z" fill="#B45EFA" />
      <path d="M502.276 271.63H482.008V312.004H502.276V271.63Z" fill="#B45EFA" />
      <path d="M482.008 291.801H461.739V332.175H482.008V291.801Z" fill="#B45EFA" />
      <path d="M461.772 312.004H441.503V352.378H461.772V312.004Z" fill="#B45EFA" />
      <path d="M441.503 332.175H421.234V372.549H441.503V332.175Z" fill="#B45EFA" />
      <path d="M421.267 352.378H400.998V392.752H421.267V352.378Z" fill="#B45EFA" />
      <path d="M400.998 372.549H380.729V412.922H400.998V372.549Z" fill="#B45EFA" />
      <path d="M785.843 -31.1573H765.574V49.5904H785.843V-31.1573Z" fill="#B45EFA" />
      <path d="M1251.67 130.338H1190.89V150.508H1251.67V130.338Z" fill="#B45EFA" />
      <path d="M1251.67 150.509H1150.39V170.679H1251.67V150.509Z" fill="#B45EFA" />
      <path d="M1251.67 170.712H1109.88V190.882H1251.67V170.712Z" fill="#B45EFA" />
      <path d="M1251.67 190.882H1049.11V211.053H1251.67V190.882Z" fill="#B45EFA" />
      <path d="M1251.67 211.086H988.367V231.257H1251.67V211.086Z" fill="#B45EFA" />
      <path d="M1190.92 231.257H947.863V251.427H1190.92V231.257Z" fill="#B45EFA" />
      <path d="M1130.15 251.459H887.089V271.63H1130.15V251.459Z" fill="#B45EFA" />
      <path d="M1069.38 271.63H846.584V291.801H1069.38V271.63Z" fill="#B45EFA" />
      <path d="M988.367 291.801H806.079V311.972H988.367V291.801Z" fill="#B45EFA" />
      <path d="M927.594 312.004H745.306V332.175H927.594V312.004Z" fill="#B45EFA" />
      <path d="M866.82 332.175H704.801V352.345H866.82V332.175Z" fill="#B45EFA" />
      <path d="M785.81 352.378H644.027V372.549H785.81V352.378Z" fill="#B45EFA" />
      <path d="M725.07 372.549H583.286V392.719H725.07V372.549Z" fill="#B45EFA" />
      <path d="M664.296 392.752H542.781V412.922H664.296V392.752Z" fill="#B45EFA" />
      <path d="M603.522 412.922H502.244V433.093H603.522V412.922Z" fill="#B45EFA" />
      <path d="M563.017 433.093H461.739V453.264H563.017V433.093Z" fill="#B45EFA" />
      <path d="M522.513 453.296H421.234V473.467H522.513V453.296Z" fill="#B45EFA" />
      <path d="M826.315 473.467H482.008V493.637H826.315V473.467Z" fill="#B45EFA" />
      <path d="M1109.88 453.296H583.286V473.467H1109.88V453.296Z" fill="#B45EFA" />
      <path d="M1251.67 433.093H704.801V453.264H1251.67V433.093Z" fill="#B45EFA" />
      <path d="M1251.67 412.922H846.584V433.093H1251.67V412.922Z" fill="#B45EFA" />
      <path d="M1251.67 392.752H968.099V412.922H1251.67V392.752Z" fill="#B45EFA" />
      <path d="M1251.67 372.549H1089.65V392.719H1251.67V372.549Z" fill="#B45EFA" />
      <path d="M482.008 493.67H441.503V513.841H482.008V493.67Z" fill="#B45EFA" />
      <path d="M441.503 513.84H360.493V534.011H441.503V513.84Z" fill="#B45EFA" />
      <path d="M1190.92 -111.872H1170.66V9.24919H1190.92V-111.872Z" fill="#B45EFA" />
      <path d="M1170.66 -91.7017H1150.39V9.21666H1170.66V-91.7017Z" fill="#B45EFA" />
      <path d="M1150.42 -91.7017H1130.15V9.21666H1150.42V-91.7017Z" fill="#B45EFA" />
      <path d="M1130.15 -71.4988H1109.88V29.4195H1130.15V-71.4988Z" fill="#B45EFA" />
      <path d="M1109.91 -51.328H1089.65V49.5903H1109.91V-51.328Z" fill="#B45EFA" />
      <path d="M1089.65 -51.328H1069.38V49.5903H1089.65V-51.328Z" fill="#B45EFA" />
      <path d="M1069.38 -31.1573H1049.11V69.761H1069.38V-31.1573Z" fill="#B45EFA" />
      <path d="M1049.14 -10.9545H1028.87V89.9639H1049.14V-10.9545Z" fill="#B45EFA" />
      <path d="M1028.87 -10.9545H1008.6V89.9639H1028.87V-10.9545Z" fill="#B45EFA" />
      <path d="M1008.64 9.21631H988.367V110.135H1008.64V9.21631Z" fill="#B45EFA" />
      <path d="M988.368 29.4198H968.099V130.338H988.368V29.4198Z" fill="#B45EFA" />
      <path d="M968.131 29.4198H947.863V130.338H968.131V29.4198Z" fill="#B45EFA" />
      <path d="M947.863 49.5905H927.594V150.509H947.863V49.5905Z" fill="#B45EFA" />
      <path d="M947.863 69.7933H927.594V150.541H947.863V69.7933Z" fill="#B45EFA" />
      <path d="M927.626 69.7933H907.358V150.541H927.626V69.7933Z" fill="#B45EFA" />
      <path d="M907.358 89.9642H887.089V170.712H907.358V89.9642Z" fill="#B45EFA" />
      <path d="M887.089 89.9642H866.82V170.712H887.089V89.9642Z" fill="#B45EFA" />
      <path d="M866.853 110.135H846.584V190.883H866.853V110.135Z" fill="#B45EFA" />
      <path d="M846.584 130.338H826.315V211.086H846.584V130.338Z" fill="#B45EFA" />
      <path d="M826.348 130.338H806.079V211.086H826.348V130.338Z" fill="#B45EFA" />
      <path d="M806.079 150.509H785.811V231.256H806.079V150.509Z" fill="#B45EFA" />
      <path d="M785.843 170.712H765.574V231.256H785.843V170.712Z" fill="#B45EFA" />
      <path d="M765.574 190.882H745.306V251.427H765.574V190.882Z" fill="#B45EFA" />
      <path d="M745.338 190.882H725.069V251.427H745.338V190.882Z" fill="#B45EFA" />
      <path d="M725.069 211.086H704.801V271.63H725.069V211.086Z" fill="#B45EFA" />
      <path d="M704.801 231.257H684.532V291.801H704.801V231.257Z" fill="#B45EFA" />
      <path d="M684.565 231.257H664.296V291.801H684.565V231.257Z" fill="#B45EFA" />
      <path d="M664.296 251.459H644.027V312.004H664.296V251.459Z" fill="#B45EFA" />
      <path d="M644.06 251.459H623.791V312.004H644.06V251.459Z" fill="#B45EFA" />
      <path d="M623.791 271.63H603.522V332.175H623.791V271.63Z" fill="#B45EFA" />
      <path d="M603.555 291.801H583.286V332.175H603.555V291.801Z" fill="#B45EFA" />
      <path d="M583.286 312.004H563.017V352.378H583.286V312.004Z" fill="#B45EFA" />
      <path d="M563.05 312.004H542.781V352.378H563.05V312.004Z" fill="#B45EFA" />
      <path d="M542.781 332.175H522.512V372.549H542.781V332.175Z" fill="#B45EFA" />
      <path d="M522.513 352.378H502.244V392.752H522.513V352.378Z" fill="#B45EFA" />
      <path d="M502.276 352.378H482.008V392.752H502.276V352.378Z" fill="#B45EFA" />
      <path d="M482.008 372.549H461.739V412.922H482.008V372.549Z" fill="#B45EFA" />
      <path d="M461.772 392.752H441.503V412.922H461.772V392.752Z" fill="#B45EFA" />
      <path d="M441.503 412.922H421.234V433.093H441.503V412.922Z" fill="#B45EFA" />
      <path d="M421.267 433.093H400.998V453.264H421.267V433.093Z" fill="#B45EFA" />
      <path d="M56.6533 29.4202L76.9221 29.4202L76.9221 -172.416H56.6533L56.6533 29.4202Z" fill="#B45EFA" />
      <path d="M76.8931 69.7673H97.1619L97.1619 -111.899H76.8931L76.8931 69.7673Z" fill="#B45EFA" />
      <path d="M97.1653 130.347H117.434L117.434 -31.1488H97.1653L97.1653 130.347Z" fill="#B45EFA" />
      <path d="M117.406 190.879H137.674L137.674 29.3837H117.406L117.406 190.879Z" fill="#B45EFA" />
      <path d="M137.678 231.274H157.947L157.947 110.152H137.678V231.274Z" fill="#B45EFA" />
      <path d="M157.917 271.621H178.186V170.703H157.917V271.621Z" fill="#B45EFA" />
      <path d="M178.19 332.186H198.459V231.268H178.19V332.186Z" fill="#B45EFA" />
      <path d="M198.43 372.548H218.699V312.003H198.43V372.548Z" fill="#B45EFA" />
      <path d="M238.979 -111.873H218.71V312.004H238.979V-111.873Z" fill="#B45EFA" />
      <path d="M259.215 190.882H238.946V372.548H259.215V190.882Z" fill="#B45EFA" />
      <path d="M198.441 -232.994H178.172V29.4197H198.441V-232.994Z" fill="#B45EFA" />
      <path d="M218.71 -232.994H198.441V150.509H218.71V-232.994Z" fill="#B45EFA" />
      <path d="M16.153 69.7933H-4.11572V150.541H16.153V69.7933Z" fill="#B45EFA" />
      <path d="M36.4214 89.964H16.1526V170.712H36.4214V89.964Z" fill="#B45EFA" />
      <path d="M56.6904 130.338H36.4216V190.882H56.6904V130.338Z" fill="#B45EFA" />
      <path d="M76.9265 150.509H56.6577V231.256H76.9265V150.509Z" fill="#B45EFA" />
      <path d="M97.1953 190.882H76.9265V271.63H97.1953V190.882Z" fill="#B45EFA" />
      <path d="M117.431 231.256H97.1626V291.8H117.431V231.256Z" fill="#B45EFA" />
      <path d="M137.7 271.63H117.431V332.175H137.7V271.63Z" fill="#B45EFA" />
      <path d="M157.936 312.004H137.667V352.378H157.936V312.004Z" fill="#B45EFA" />
      <path d="M178.205 332.175H157.936V372.549H178.205V332.175Z" fill="#B45EFA" />
      <path d="M16.153 231.256H-4.11572V271.63H16.153V231.256Z" fill="#B45EFA" />
      <path d="M36.4214 251.459H16.1526V291.833H36.4214V251.459Z" fill="#B45EFA" />
      <path d="M56.6904 271.63H36.4216V312.004H56.6904V271.63Z" fill="#B45EFA" />
      <path d="M76.9265 291.801H56.6577V332.175H76.9265V291.801Z" fill="#B45EFA" />
      <path d="M97.1953 312.004H76.9265V352.378H97.1953V312.004Z" fill="#B45EFA" />
      <path d="M117.431 332.175H97.1626V372.549H117.431V332.175Z" fill="#B45EFA" />
      <path d="M137.7 352.378H117.431V392.752H137.7V352.378Z" fill="#B45EFA" />
      <path d="M157.936 372.549H137.667V412.922H157.936V372.549Z" fill="#B45EFA" />
      <path d="M36.4213 412.923H-64.8572V433.093H36.4213V412.923Z" fill="#B45EFA" />
      <path d="M76.927 433.093H-24.3516V453.263H76.927V433.093Z" fill="#B45EFA" />
      <path d="M117.431 453.296H16.1526V473.467H117.431V453.296Z" fill="#B45EFA" />
      <path d="M56.6577 473.467H-287.65V493.638H56.6577V473.467Z" fill="#B45EFA" />
      <path d="M97.1626 493.67H56.6577V513.841H97.1626V493.67Z" fill="#B45EFA" />
      <path d="M178.172 513.841H97.1626V534.011H178.172V513.841Z" fill="#B45EFA" />
      <path d="M16.153 332.175H-4.11572V372.549H16.153V332.175Z" fill="#B45EFA" />
      <path d="M36.4214 352.378H16.1526V392.752H36.4214V352.378Z" fill="#B45EFA" />
      <path d="M56.6904 352.378H36.4216V392.752H56.6904V352.378Z" fill="#B45EFA" />
      <path d="M76.9265 372.549H56.6577V412.922H76.9265V372.549Z" fill="#B45EFA" />
      <path d="M97.1953 392.752H76.9265V412.922H97.1953V392.752Z" fill="#B45EFA" />
      <path d="M117.431 412.923H97.1626V433.093H117.431V412.923Z" fill="#B45EFA" />
      <path d="M137.7 433.093H117.431V453.263H137.7V433.093Z" fill="#B45EFA" />
      <path d="M198.43 715.706H218.699V655.162H198.43V715.706Z" fill="#B45EFA" />
      <path d="M259.215 655.133H238.946V937.717H259.215V655.133Z" fill="#B45EFA" />
      <path d="M157.936 675.336H137.667V715.71H157.936V675.336Z" fill="#B45EFA" />
      <path d="M178.205 655.133H157.936V695.507H178.205V655.133Z" fill="#B45EFA" />
      <path d="M97.195 675.336H76.9263V715.71H97.195V675.336Z" fill="#B45EFA" />
      <path d="M117.431 655.133H97.1626V695.507H117.431V655.133Z" fill="#B45EFA" />
      <path d="M137.7 634.962H117.431V675.336H137.7V634.962Z" fill="#B45EFA" />
      <path d="M157.936 614.759H137.667V655.133H157.936V614.759Z" fill="#B45EFA" />
      <path d="M36.4213 594.588H-64.8572V614.759H36.4213V594.588Z" fill="#B45EFA" />
      <path d="M76.9267 574.418H-24.3518V594.588H76.9267V574.418Z" fill="#B45EFA" />
      <path d="M117.431 554.214H16.1526V574.385H117.431V554.214Z" fill="#B45EFA" />
      <path d="M56.6577 534.044H-287.65V554.214H56.6577V534.044Z" fill="#B45EFA" />
      <path d="M97.1626 513.841H56.6577V534.011H97.1626V513.841Z" fill="#B45EFA" />
      <path d="M117.431 493.67H97.1626V513.841H117.431V493.67Z" fill="#B45EFA" />
      <path d="M441.503 493.67H421.234V513.841H441.503V493.67Z" fill="#B45EFA" />
      <path d="M16.153 655.133H-4.11572V695.507H16.153V655.133Z" fill="#B45EFA" />
      <path d="M36.4214 634.962H16.1526V675.336H36.4214V634.962Z" fill="#B45EFA" />
      <path d="M56.6904 634.962H36.4216V675.336H56.6904V634.962Z" fill="#B45EFA" />
      <path d="M76.9265 614.759H56.6577V655.133H76.9265V614.759Z" fill="#B45EFA" />
      <path d="M97.195 614.759H76.9263V634.929H97.195V614.759Z" fill="#B45EFA" />
      <path d="M117.431 594.588H97.1626V614.759H117.431V594.588Z" fill="#B45EFA" />
      <path d="M137.7 574.418H117.431V594.588H137.7V574.418Z" fill="#B45EFA" />
      <path d="M340.224 655.133H319.955V715.677H340.224V655.133Z" fill="#B45EFA" />
      <path d="M299.719 655.133H279.451V937.717H299.719V655.133Z" fill="#B45EFA" />
      <path d="M400.998 675.336H380.729V715.71H400.998V675.336Z" fill="#B45EFA" />
      <path d="M380.762 655.133H360.493V695.507H380.762V655.133Z" fill="#B45EFA" />
      <path d="M461.772 675.336H441.503V715.71H461.772V675.336Z" fill="#B45EFA" />
      <path d="M441.503 655.133H421.234V695.507H441.503V655.133Z" fill="#B45EFA" />
      <path d="M421.267 634.962H400.998V675.336H421.267V634.962Z" fill="#B45EFA" />
      <path d="M400.998 614.759H380.729V655.133H400.998V614.759Z" fill="#B45EFA" />
      <path d="M866.82 675.336H704.801V695.507H866.82V675.336Z" fill="#B45EFA" />
      <path d="M785.81 655.133H644.027V675.304H785.81V655.133Z" fill="#B45EFA" />
      <path d="M725.07 634.962H583.286V655.133H725.07V634.962Z" fill="#B45EFA" />
      <path d="M664.296 614.759H542.781V634.93H664.296V614.759Z" fill="#B45EFA" />
      <path d="M603.522 594.589H502.244V614.759H603.522V594.589Z" fill="#B45EFA" />
      <path d="M563.017 574.418H461.739V594.589H563.017V574.418Z" fill="#B45EFA" />
      <path d="M522.513 554.214H421.234V574.385H522.513V554.214Z" fill="#B45EFA" />
      <path d="M826.315 534.044H482.008V554.215H826.315V534.044Z" fill="#B45EFA" />
      <path d="M1109.88 554.214H583.286V574.385H1109.88V554.214Z" fill="#B45EFA" />
      <path d="M1251.67 574.418H704.801V594.589H1251.67V574.418Z" fill="#B45EFA" />
      <path d="M1251.67 594.589H846.584V614.759H1251.67V594.589Z" fill="#B45EFA" />
      <path d="M1251.67 614.759H968.099V634.93H1251.67V614.759Z" fill="#B45EFA" />
      <path d="M1251.67 634.962H1089.65V655.133H1251.67V634.962Z" fill="#B45EFA" />
      <path d="M482.008 513.841H441.503V534.011H482.008V513.841Z" fill="#B45EFA" />
      <path d="M583.286 675.336H563.017V715.71H583.286V675.336Z" fill="#B45EFA" />
      <path d="M563.05 675.336H542.781V715.71H563.05V675.336Z" fill="#B45EFA" />
      <path d="M542.781 655.133H522.512V695.507H542.781V655.133Z" fill="#B45EFA" />
      <path d="M522.513 634.962H502.244V675.336H522.513V634.962Z" fill="#B45EFA" />
      <path d="M502.276 634.962H482.008V675.336H502.276V634.962Z" fill="#B45EFA" />
      <path d="M482.008 614.759H461.739V655.133H482.008V614.759Z" fill="#B45EFA" />
      <path d="M461.772 614.759H441.503V634.93H461.772V614.759Z" fill="#B45EFA" />
      <path d="M441.503 594.589H421.234V614.759H441.503V594.589Z" fill="#B45EFA" />
      <path d="M421.267 574.418H400.998V594.589H421.267V574.418Z" fill="#B45EFA" />
    </g>
  </g>
</svg>