<svg viewBox="0 0 477 538" xmlns="http://www.w3.org/2000/svg">
  <circle cx="208" cy="269" r="269" fill="#96CF25" />
  <path
    d="M49.3329 290L-11.6493 306.353L-28 367.344L16.6493 412L77.6493 395.647L94 334.638L49.3329 290ZM16.0279 403.406L-19.3897 367.966L29.0055 355.004L16.0279 403.406ZM34.4558 356.46L69.8911 391.9L21.4959 404.88L34.4558 356.46ZM-3.89115 310.117L44.5041 297.138L31.5442 345.54L-3.89115 310.117ZM49.9543 298.612L85.3897 334.034L36.9945 346.996L49.9543 298.612ZM-7.88562 314.112L27.5498 349.553L-20.8455 362.515L-7.88562 314.112ZM73.8856 387.905L38.4502 352.465L86.8455 339.503L73.8856 387.905Z"
    fill="#231F20" />
</svg>