<svg viewBox="0 0 181 228" xmlns="http://www.w3.org/2000/svg">
  <path
    d="M-19.7468 154.043C-34.2231 143.838 -37.6964 123.757 -27.4896 109.278L27.5133 31.2575C37.7201 16.7793 57.8006 13.3032 72.2768 23.5086L150.287 78.504C164.763 88.7095 168.237 108.79 158.03 123.269L103.027 201.29C92.8201 215.768 72.7397 219.244 58.2634 209.038L-19.7468 154.043Z"
    fill="#0091D9" />
  <path
    d="M-8.46399 147.772C-24.0891 136.757 -27.8381 115.083 -16.8212 99.4554L32.0705 30.1032C43.0874 14.4759 64.7612 10.724 80.3863 21.7394L149.729 70.6244C165.354 81.6397 169.103 103.314 158.086 118.941L109.195 188.294C98.1777 203.921 76.5039 207.673 60.8788 196.657L-8.46399 147.772Z"
    fill="#202224" />
  <path
    d="M-4.9377 142.77C-17.8052 133.699 -20.8927 115.849 -11.8202 102.979L37.0708 33.6281C46.1433 20.7589 63.9933 17.6689 76.8608 26.7402L146.204 75.6252C159.071 84.6965 162.159 102.547 153.086 115.416L104.194 184.768C95.1219 197.638 77.2718 200.728 64.4043 191.656L-4.93844 142.771L-4.9377 142.77Z"
    fill="#0091D9" />
  <path
    d="M-8.16747 116.274C-3.32507 112.589 2.26301 110.03 7.82545 107.613C14.2387 104.827 20.5752 101.867 26.9425 98.9741C50.4878 88.2762 73.8289 77.1055 97.4449 66.5681C104.877 63.2521 112.39 60.145 119.934 57.1057L76.8618 26.741C63.9944 17.6697 46.1443 20.7597 37.0718 33.6289L-11.8199 102.981C-15.3264 107.955 -17.0093 113.672 -17.0195 119.339C-14.0883 118.277 -11.1215 117.289 -8.16747 116.274Z"
    fill="#00AAFF" />
  <path
    d="M27.7049 114.872C18.054 108.069 15.7394 94.6816 22.5432 85.0305L59.2126 33.0155C66.0154 23.3636 79.4029 21.0462 89.0538 27.8498L141.061 64.5134C150.711 71.317 153.026 84.7041 146.222 94.3553L109.554 146.369C102.749 156.021 89.3623 158.338 79.7124 151.535L27.7056 114.871L27.7049 114.872Z"
    fill="#202224" />
  <path
    d="M137.535 69.5142L85.5283 32.8506C78.6237 27.983 69.0812 29.6349 64.2129 36.5405L27.5443 88.5544C22.6761 95.46 24.3266 105.003 31.2313 109.87L83.2381 146.534C90.1427 151.401 99.6852 149.75 104.553 142.844L141.222 90.8301C146.09 83.9256 144.44 74.3818 137.535 69.5142Z"
    fill="#00AAFF" />
</svg>