<svg viewBox="0 0 283 260" xmlns="http://www.w3.org/2000/svg">
  <circle cx="9.5" cy="9.5" r="9.5" fill="white" />
  <circle cx="42.5" cy="9.5" r="9.5" fill="white" />
  <circle cx="75.5" cy="9.5" r="9.5" fill="white" />
  <circle cx="108.5" cy="9.5" r="9.5" fill="white" />
  <circle cx="141.5" cy="9.5" r="9.5" fill="white" />
  <circle cx="174.5" cy="9.5" r="9.5" fill="white" />
  <circle cx="207.5" cy="9.5" r="9.5" fill="white" />
  <circle cx="240.5" cy="9.5" r="9.5" fill="white" />
  <circle cx="273.5" cy="9.5" r="9.5" fill="white" />
  <ellipse cx="9.5" cy="39" rx="9.5" ry="9" fill="white" />
  <ellipse cx="42.5" cy="39" rx="9.5" ry="9" fill="white" />
  <ellipse cx="75.5" cy="39" rx="9.5" ry="9" fill="white" />
  <ellipse cx="108.5" cy="39" rx="9.5" ry="9" fill="white" />
  <ellipse cx="141.5" cy="39" rx="9.5" ry="9" fill="white" />
  <ellipse cx="174.5" cy="39" rx="9.5" ry="9" fill="white" />
  <ellipse cx="207.5" cy="39" rx="9.5" ry="9" fill="white" />
  <ellipse cx="240.5" cy="39" rx="9.5" ry="9" fill="white" />
  <ellipse cx="273.5" cy="39" rx="9.5" ry="9" fill="white" />
  <ellipse cx="9.5" cy="69" rx="9.5" ry="9" fill="white" />
  <ellipse cx="42.5" cy="69" rx="9.5" ry="9" fill="white" />
  <ellipse cx="75.5" cy="69" rx="9.5" ry="9" fill="white" />
  <ellipse cx="108.5" cy="69" rx="9.5" ry="9" fill="white" />
  <ellipse cx="141.5" cy="69" rx="9.5" ry="9" fill="white" />
  <ellipse cx="174.5" cy="69" rx="9.5" ry="9" fill="white" />
  <ellipse cx="207.5" cy="69" rx="9.5" ry="9" fill="white" />
  <ellipse cx="240.5" cy="69" rx="9.5" ry="9" fill="white" />
  <ellipse cx="273.5" cy="69" rx="9.5" ry="9" fill="white" />
  <ellipse cx="9.5" cy="100" rx="9.5" ry="9" fill="white" />
  <ellipse cx="42.5" cy="100" rx="9.5" ry="9" fill="white" />
  <ellipse cx="75.5" cy="100" rx="9.5" ry="9" fill="white" />
  <ellipse cx="108.5" cy="100" rx="9.5" ry="9" fill="white" />
  <ellipse cx="141.5" cy="100" rx="9.5" ry="9" fill="white" />
  <ellipse cx="174.5" cy="100" rx="9.5" ry="9" fill="white" />
  <ellipse cx="207.5" cy="100" rx="9.5" ry="9" fill="white" />
  <ellipse cx="240.5" cy="100" rx="9.5" ry="9" fill="white" />
  <ellipse cx="273.5" cy="100" rx="9.5" ry="9" fill="white" />
  <ellipse cx="9.5" cy="130" rx="9.5" ry="9" fill="white" />
  <ellipse cx="42.5" cy="130" rx="9.5" ry="9" fill="white" />
  <ellipse cx="75.5" cy="130" rx="9.5" ry="9" fill="white" />
  <ellipse cx="108.5" cy="130" rx="9.5" ry="9" fill="white" />
  <ellipse cx="141.5" cy="130" rx="9.5" ry="9" fill="white" />
  <ellipse cx="174.5" cy="130" rx="9.5" ry="9" fill="white" />
  <ellipse cx="207.5" cy="130" rx="9.5" ry="9" fill="white" />
  <ellipse cx="240.5" cy="130" rx="9.5" ry="9" fill="white" />
  <ellipse cx="273.5" cy="130" rx="9.5" ry="9" fill="white" />
  <ellipse cx="9.5" cy="160" rx="9.5" ry="9" fill="white" />
  <ellipse cx="42.5" cy="160" rx="9.5" ry="9" fill="white" />
  <ellipse cx="75.5" cy="160" rx="9.5" ry="9" fill="white" />
  <ellipse cx="108.5" cy="160" rx="9.5" ry="9" fill="white" />
  <ellipse cx="141.5" cy="160" rx="9.5" ry="9" fill="white" />
  <ellipse cx="174.5" cy="160" rx="9.5" ry="9" fill="white" />
  <ellipse cx="207.5" cy="160" rx="9.5" ry="9" fill="white" />
  <ellipse cx="240.5" cy="160" rx="9.5" ry="9" fill="white" />
  <ellipse cx="273.5" cy="160" rx="9.5" ry="9" fill="white" />
  <circle cx="9.5" cy="189.5" r="9.5" fill="white" />
  <circle cx="42.5" cy="189.5" r="9.5" fill="white" />
  <circle cx="75.5" cy="189.5" r="9.5" fill="white" />
  <circle cx="108.5" cy="189.5" r="9.5" fill="white" />
  <circle cx="141.5" cy="189.5" r="9.5" fill="white" />
  <circle cx="174.5" cy="189.5" r="9.5" fill="white" />
  <circle cx="207.5" cy="189.5" r="9.5" fill="white" />
  <circle cx="240.5" cy="189.5" r="9.5" fill="white" />
  <circle cx="273.5" cy="189.5" r="9.5" fill="white" />
  <ellipse cx="9.5" cy="221" rx="9.5" ry="9" fill="white" />
  <ellipse cx="42.5" cy="221" rx="9.5" ry="9" fill="white" />
  <ellipse cx="75.5" cy="221" rx="9.5" ry="9" fill="white" />
  <ellipse cx="108.5" cy="221" rx="9.5" ry="9" fill="white" />
  <ellipse cx="141.5" cy="221" rx="9.5" ry="9" fill="white" />
  <ellipse cx="174.5" cy="221" rx="9.5" ry="9" fill="white" />
  <ellipse cx="207.5" cy="221" rx="9.5" ry="9" fill="white" />
  <ellipse cx="240.5" cy="221" rx="9.5" ry="9" fill="white" />
  <ellipse cx="273.5" cy="221" rx="9.5" ry="9" fill="white" />
  <circle cx="9.5" cy="250.5" r="9.5" fill="white" />
  <circle cx="42.5" cy="250.5" r="9.5" fill="white" />
  <circle cx="75.5" cy="250.5" r="9.5" fill="white" />
  <circle cx="108.5" cy="250.5" r="9.5" fill="white" />
  <circle cx="141.5" cy="250.5" r="9.5" fill="white" />
  <circle cx="174.5" cy="250.5" r="9.5" fill="white" />
  <circle cx="207.5" cy="250.5" r="9.5" fill="white" />
  <circle cx="240.5" cy="250.5" r="9.5" fill="white" />
  <circle cx="273.5" cy="250.5" r="9.5" fill="white" />
</svg>