<svg viewBox="0 0 239 241" xmlns="http://www.w3.org/2000/svg">
  <path
    d="M27.7166 162.629C12.4334 151.855 8.76648 130.655 19.5422 115.37L77.6108 33C88.3865 17.7148 109.586 14.045 124.869 24.8192L207.228 82.8799C222.511 93.6541 226.178 114.854 215.402 130.14L157.333 212.509C146.558 227.794 125.358 231.464 110.075 220.69L27.7166 162.629Z"
    fill="#D5DDE1" />
  <path
    d="M39.6282 156.009C23.1321 144.38 19.1742 121.497 30.8052 104.999L82.4219 31.7811C94.0529 15.2828 116.935 11.3218 133.431 22.9511L206.638 74.5608C223.135 86.1901 227.092 109.073 215.462 125.571L163.845 198.789C152.214 215.287 129.332 219.248 112.836 207.619L39.6282 156.009Z"
    fill="#202224" />
  <path
    d="M43.3511 150.728C29.7664 141.151 26.5068 122.306 36.085 108.719L87.701 35.5026C97.2792 21.9161 116.124 18.6539 129.709 28.2308L202.917 79.8405C216.501 89.4174 219.761 108.263 210.183 121.849L158.566 195.067C148.988 208.654 130.143 211.916 116.558 202.339L43.3503 150.729L43.3511 150.728Z"
    fill="#D5DDE1" />
  <path
    d="M39.9413 122.754C45.0536 118.864 50.9531 116.163 56.8256 113.611C63.5963 110.67 70.286 107.545 77.0082 104.49C101.866 93.1962 126.508 81.403 151.44 70.2782C159.286 66.7774 167.219 63.4971 175.183 60.2884L129.71 28.2313C116.125 18.6544 97.2803 21.9166 87.7021 35.5031L36.0853 108.721C32.3834 113.972 30.6067 120.008 30.5958 125.991C33.6905 124.87 36.8226 123.826 39.9413 122.754Z"
    fill="white" />
  <path
    d="M77.813 121.275C67.6243 114.092 65.1807 99.9588 72.3637 89.7698L111.077 34.8556C118.259 24.6658 132.393 22.2192 142.581 29.402L197.487 68.1091C207.676 75.2919 210.119 89.4252 202.936 99.6143L164.224 154.527C157.04 164.717 142.907 167.163 132.719 159.981L77.8138 121.274L77.813 121.275Z"
    fill="#202224" />
  <path
    d="M193.765 73.389L138.859 34.6819C131.57 29.543 121.496 31.287 116.356 38.5774L77.6435 93.4905C72.5039 100.781 74.2465 110.856 81.536 115.994L136.442 154.702C143.731 159.84 153.805 158.096 158.945 150.806L197.657 95.893C202.796 88.6036 201.054 78.5279 193.765 73.389Z"
    fill="white" />
</svg>