<svg viewBox="0 0 122 123" fill="none" xmlns="http://www.w3.org/2000/svg">
  <path
    d="M14.0974 82.7192C6.32387 77.239 4.45873 66.4558 9.93967 58.6811L39.4755 16.785C44.9564 9.01032 55.7394 7.14372 63.5129 12.6239L105.403 42.1557C113.177 47.6359 115.042 58.4191 109.561 66.1937L80.0254 108.09C74.5444 115.865 63.7615 117.731 55.9879 112.251L14.0974 82.7192Z"
    fill="#D5DDE1" />
  <path
    d="M20.1562 79.3518C11.7657 73.4367 9.75257 61.7979 15.6685 53.4062L41.9227 16.165C47.8386 7.7733 59.4771 5.75859 67.8676 11.6737L105.104 37.9243C113.494 43.8394 115.507 55.4782 109.592 63.8699L83.3373 101.111C77.4214 109.503 65.7829 111.517 57.3924 105.602L20.1562 79.3518Z"
    fill="#202224" />
  <path
    d="M22.0498 76.6658C15.1402 71.7946 13.4822 62.2092 18.354 55.2986L44.6078 18.0579C49.4796 11.1473 59.0649 9.488 65.9745 14.3591L103.211 40.6098C110.12 45.4809 111.778 55.0664 106.907 61.977L80.6523 99.2182C75.7805 106.129 66.1952 107.788 59.2856 102.917L22.0494 76.6664L22.0498 76.6658Z"
    fill="#D5DDE1" />
  <path
    d="M20.3155 62.4373C22.9158 60.4587 25.9165 59.0845 28.9034 57.7868C32.3473 56.2907 35.7499 54.7012 39.169 53.1476C51.8126 47.403 64.3464 41.4045 77.0279 35.746C81.0187 33.9654 85.0533 32.2969 89.1042 30.6648L65.9751 14.3594C59.0654 9.48825 49.4802 11.1475 44.6084 18.0581L18.3542 55.2994C16.4712 57.9703 15.5675 61.0404 15.562 64.0836C17.1361 63.5132 18.7292 62.9823 20.3155 62.4373Z"
    fill="white" />
  <path
    d="M39.5784 61.6848C34.3961 58.0314 33.1531 50.8427 36.8067 45.6601L56.4977 17.7288C60.1507 12.5459 67.3396 11.3014 72.522 14.9549L100.449 34.6427C105.631 38.2962 106.874 45.4849 103.221 50.6674L83.5301 78.5982C79.8762 83.7813 72.6876 85.0252 67.5058 81.3721L39.5788 61.6843L39.5784 61.6848Z"
    fill="#202224" />
  <path
    d="M98.5558 37.3283L70.6289 17.6404C66.9212 15.0266 61.797 15.9136 59.1828 19.6218L39.4922 47.5526C36.878 51.2608 37.7644 56.3852 41.4721 58.999L69.399 78.6868C73.1067 81.3007 78.2309 80.4136 80.8451 76.7054L100.536 48.7746C103.149 45.067 102.264 39.9421 98.5558 37.3283Z"
    fill="white" />
</svg>