<svg viewBox="0 0 227 228" fill="none" xmlns="http://www.w3.org/2000/svg">
  <path
    d="M26.2532 154.043C11.7769 143.838 8.30355 123.757 18.5104 109.278L73.5133 31.2575C83.7201 16.7792 103.801 13.3032 118.277 23.5086L196.287 78.504C210.763 88.7094 214.237 108.79 204.03 123.269L149.027 201.289C138.82 215.768 118.74 219.244 104.263 209.038L26.2532 154.043Z"
    fill="#D5DDE1" />
  <path
    d="M37.536 147.772C21.9108 136.757 18.1619 115.083 29.1788 99.4553L78.0705 30.1031C89.0873 14.4758 110.761 10.7239 126.386 21.7393L195.729 70.6243C211.354 81.6396 215.103 103.314 204.086 118.941L155.195 188.294C144.178 203.921 122.504 207.673 106.879 196.657L37.536 147.772Z"
    fill="#202224" />
  <path
    d="M41.0623 142.77C28.1948 133.699 25.1073 115.848 34.1798 102.979L83.0708 33.628C92.1433 20.7588 109.993 17.6688 122.861 26.7401L192.204 75.6251C205.071 84.6964 208.159 102.547 199.086 115.416L150.194 184.768C141.122 197.638 123.272 200.728 110.404 191.656L41.0616 142.771L41.0623 142.77Z"
    fill="#D5DDE1" />
  <path
    d="M37.8325 116.274C42.6749 112.589 48.263 110.03 53.8254 107.613C60.2386 104.827 66.5752 101.867 72.9424 98.9742C96.4877 88.2762 119.829 77.1056 143.445 66.5682C150.877 63.2522 158.39 60.145 165.934 57.1058L122.862 26.7411C109.994 17.6698 92.1443 20.7598 83.0718 33.629L34.1801 102.981C30.6736 107.955 28.9907 113.672 28.9804 119.34C31.9117 118.277 34.8785 117.289 37.8325 116.274Z"
    fill="white" />
  <path
    d="M73.7049 114.872C64.054 108.069 61.7394 94.6816 68.5432 85.0305L105.213 33.0155C112.015 23.3637 125.403 21.0462 135.054 27.8498L187.061 64.5134C196.711 71.317 199.026 84.7041 192.222 94.3553L155.554 146.369C148.749 156.021 135.362 158.338 125.712 151.535L73.7056 114.871L73.7049 114.872Z"
    fill="#202224" />
  <path
    d="M183.535 69.5142L131.528 32.8506C124.624 27.983 115.081 29.6349 110.213 36.5405L73.5443 88.5544C68.6761 95.46 70.3266 105.003 77.2313 109.87L129.238 146.534C136.143 151.401 145.685 149.75 150.553 142.844L187.222 90.8301C192.09 83.9256 190.44 74.3818 183.535 69.5142Z"
    fill="white" />
</svg>