<svg width="1200" height="1600" viewBox="0 0 1200 1600" fill="none" xmlns="http://www.w3.org/2000/svg">
<rect x="-282.016" y="170.154" width="84.2474" height="1646.92" transform="rotate(-9 -282.016 170.154)" fill="#9B60FA"/>
<rect x="-133.427" y="146.619" width="86.2533" height="1646.92" transform="rotate(-9 -133.427 146.619)" fill="#9B60FA"/>
<rect x="15.1629" y="123.086" width="84.2474" height="1646.92" transform="rotate(-9 15.1629 123.086)" fill="#9B60FA"/>
<rect x="163.752" y="99.551" width="86.2533" height="1646.92" transform="rotate(-9 163.752 99.551)" fill="#9B60FA"/>
<rect x="314.323" y="75.7029" width="82.2415" height="1646.92" transform="rotate(-9 314.323 75.7029)" fill="#9B60FA"/>
<rect x="460.932" y="52.4824" width="82.2415" height="1646.92" transform="rotate(-9 460.932 52.4824)" fill="#9B60FA"/>
<rect x="607.54" y="29.2622" width="86.2533" height="1646.92" transform="rotate(-9 607.54 29.2622)" fill="#9B60FA"/>
<rect x="758.111" y="5.41406" width="84.2474" height="1646.92" transform="rotate(-9 758.111 5.41406)" fill="#9B60FA"/>
<rect x="904.72" y="-17.8062" width="86.2533" height="1646.92" transform="rotate(-9 904.72 -17.8062)" fill="#9B60FA"/>
<rect x="1055.29" y="-41.6543" width="84.2474" height="1646.92" transform="rotate(-9 1055.29 -41.6543)" fill="#9B60FA"/>
</svg>
