<svg viewBox="0 0 268 278" fill="none" xmlns="http://www.w3.org/2000/svg">
  <circle cx="191" cy="139" r="139" fill="#96CF25" />
  <path
    d="M17.18 101.806C7.7067 95.1273 5.43375 81.9864 12.1131 72.5118L48.107 21.4549C54.7864 11.9803 67.927 9.70557 77.4003 16.384L128.45 52.373C137.923 59.0514 140.196 72.1924 133.517 81.667L97.5232 132.724C90.8438 142.198 77.7032 144.473 68.2299 137.795L17.18 101.806Z"
    fill="#D5DDE1" />
  <path
    d="M24.5633 97.7025C14.3382 90.4941 11.8849 76.3104 19.0944 66.0839L51.0891 20.6998C58.2986 10.4733 72.4819 8.01803 82.707 15.2265L128.085 47.2168C138.31 54.4253 140.763 68.609 133.554 78.8355L101.559 124.22C94.3497 134.446 80.1664 136.901 69.9413 129.693L24.5633 97.7025Z"
    fill="#202224" />
  <path
    d="M26.8712 94.4289C18.4507 88.4927 16.4303 76.8113 22.3673 68.3897L54.3616 23.0063C60.2986 14.5846 71.9797 12.5625 80.4002 18.4988L125.778 50.4891C134.199 56.4254 136.219 68.1067 130.282 76.5284L98.2873 121.913C92.3502 130.334 80.6691 132.356 72.2487 126.42L26.8707 94.4296L26.8712 94.4289Z"
    fill="#D5DDE1" />
  <path
    d="M24.7575 77.0896C27.9263 74.6783 31.5832 73.0037 35.2232 71.4222C39.42 69.599 43.5667 67.6619 47.7334 65.7686C63.1415 58.7679 78.4159 51.4578 93.8702 44.5621C98.7335 42.3922 103.65 40.3588 108.587 38.3699L80.4007 18.4993C71.9802 12.563 60.2991 14.5851 54.362 23.0067L22.3673 68.3909C20.0727 71.6458 18.9714 75.3872 18.9647 79.0957C20.8829 78.4007 22.8243 77.7537 24.7575 77.0896Z"
    fill="white" />
  <path
    d="M48.2325 76.1725C41.917 71.7202 40.4023 62.9597 44.8547 56.644L68.8511 22.6054C73.3029 16.2892 82.0637 14.7726 88.3792 19.2249L122.412 43.2176C128.728 47.6699 130.243 56.4304 125.79 62.7461L101.794 96.784C97.3414 103.1 88.5811 104.616 82.2662 100.164L48.233 76.1718L48.2325 76.1725Z"
    fill="#202224" />
  <path
    d="M120.105 46.4904L86.0719 22.4977C81.5535 19.3124 75.3089 20.3933 72.1231 24.9123L48.1271 58.9503C44.9414 63.4693 46.0215 69.714 50.5399 72.8994L84.5732 96.8921C89.0915 100.077 95.3362 98.9964 98.5219 94.4774L122.518 60.4395C125.703 55.9212 124.624 49.6757 120.105 46.4904Z"
    fill="white" />
</svg>