<svg viewBox="0 0 1200 250" fill="none" xmlns="http://www.w3.org/2000/svg">
<path fill-rule="evenodd" clip-rule="evenodd" d="M0 180L67 192C133 204 267 228 400 198C533 168 667 84 800 96C933 108 1067 216 1133 270L1200 324V0H1133C1067 0 933 0 800 0C667 0 533 0 400 0C267 0 133 0 67 0H0V180Z" fill="#EAEAEA"/>
<path d="M1339 185C1339 261.768 1276.77 324 1200 324C1123.23 324 1061 261.768 1061 185C1061 108.232 1123.23 46 1200 46C1276.77 46 1339 108.232 1339 185Z" fill="#96CF25"/>
<path d="M29.2531 237.043C14.7768 226.838 11.3035 206.757 21.5103 192.279L76.5132 114.258C86.7201 99.7795 106.8 96.3034 121.277 106.509L199.287 161.504C213.763 171.71 217.237 191.791 207.03 206.269L152.027 284.29C141.82 298.768 121.74 302.244 107.263 292.039L29.2531 237.043Z" fill="#D5DDE1"/>
<path d="M40.5359 230.772C24.9108 219.757 21.1619 198.083 32.1787 182.455L81.0704 113.103C92.0873 97.4758 113.761 93.7239 129.386 104.739L198.729 153.624C214.354 164.64 218.103 186.314 207.086 201.941L158.195 271.294C147.178 286.921 125.504 290.673 109.879 279.657L40.5359 230.772Z" fill="#202224"/>
<path d="M44.0623 225.77C31.1948 216.699 28.1073 198.848 37.1798 185.979L86.0707 116.628C95.1432 103.759 112.993 100.669 125.861 109.74L195.204 158.625C208.071 167.696 211.159 185.547 202.086 198.416L153.194 267.768C144.122 280.638 126.272 283.728 113.404 274.656L44.0615 225.771L44.0623 225.77Z" fill="#D5DDE1"/>
<path d="M40.8325 199.274C45.6749 195.589 51.2629 193.03 56.8254 190.613C63.2386 187.827 69.5751 184.867 75.9424 181.974C99.4877 171.276 122.829 160.106 146.445 149.568C153.877 146.252 161.39 143.145 168.934 140.106L125.862 109.741C112.994 100.67 95.1442 103.76 86.0717 116.629L37.18 185.981C33.6736 190.955 31.9907 196.672 31.9804 202.34C34.9116 201.277 37.8784 200.289 40.8325 199.274Z" fill="white"/>
<path d="M76.7049 197.872C67.054 191.069 64.7394 177.682 71.5432 168.03L108.213 116.016C115.015 106.364 128.403 104.046 138.054 110.85L190.061 147.513C199.711 154.317 202.026 167.704 195.222 177.355L158.554 229.369C151.749 239.021 138.362 241.338 128.712 234.535L76.7056 197.871L76.7049 197.872Z" fill="#202224"/>
<path d="M186.535 152.514L134.528 115.851C127.624 110.983 118.081 112.635 113.213 119.54L76.5443 171.554C71.676 178.46 73.3266 188.003 80.2312 192.87L132.238 229.534C139.143 234.401 148.685 232.75 153.553 225.844L190.222 173.83C195.09 166.926 193.44 157.382 186.535 152.514Z" fill="white"/>
<path d="M993.18 196.806C983.707 190.127 981.434 176.986 988.113 167.512L1024.11 116.455C1030.79 106.98 1043.93 104.706 1053.4 111.384L1104.45 147.373C1113.92 154.051 1116.2 167.192 1109.52 176.667L1073.52 227.724C1066.84 237.198 1053.7 239.473 1044.23 232.795L993.18 196.806Z" fill="#D5DDE1"/>
<path d="M1000.56 192.703C990.338 185.494 987.885 171.31 995.094 161.084L1027.09 115.7C1034.3 105.473 1048.48 103.018 1058.71 110.226L1104.09 142.217C1114.31 149.425 1116.76 163.609 1109.55 173.835L1077.56 219.22C1070.35 229.446 1056.17 231.901 1045.94 224.693L1000.56 192.703Z" fill="#202224"/>
<path d="M1002.87 189.429C994.451 183.493 992.43 171.811 998.367 163.39L1030.36 118.006C1036.3 109.585 1047.98 107.563 1056.4 113.499L1101.78 145.489C1110.2 151.425 1112.22 163.107 1106.28 171.528L1074.29 216.913C1068.35 225.334 1056.67 227.356 1048.25 221.42L1002.87 189.43L1002.87 189.429Z" fill="#D5DDE1"/>
<path d="M1000.76 172.09C1003.93 169.678 1007.58 168.004 1011.22 166.422C1015.42 164.599 1019.57 162.662 1023.73 160.769C1039.14 153.768 1054.42 146.458 1069.87 139.562C1074.73 137.392 1079.65 135.359 1084.59 133.37L1056.4 113.499C1047.98 107.563 1036.3 109.585 1030.36 118.007L998.367 163.391C996.073 166.646 994.971 170.387 994.965 174.096C996.883 173.401 998.824 172.754 1000.76 172.09Z" fill="white"/>
<path d="M1024.23 171.173C1017.92 166.72 1016.4 157.96 1020.85 151.644L1044.85 117.605C1049.3 111.289 1058.06 109.773 1064.38 114.225L1098.41 138.218C1104.73 142.67 1106.24 151.43 1101.79 157.746L1077.79 191.784C1073.34 198.1 1064.58 199.616 1058.27 195.164L1024.23 171.172L1024.23 171.173Z" fill="#202224"/>
<path d="M1096.11 141.49L1062.07 117.498C1057.55 114.312 1051.31 115.393 1048.12 119.912L1024.13 153.95C1020.94 158.469 1022.02 164.714 1026.54 167.899L1060.57 191.892C1065.09 195.077 1071.34 193.996 1074.52 189.477L1098.52 155.439C1101.7 150.921 1100.62 144.676 1096.11 141.49Z" fill="white"/>
</svg>
