<svg width="1200" height="928" viewBox="0 0 1200 928" fill="none" xmlns="http://www.w3.org/2000/svg">
  <mask id="mask0" mask-type="alpha" maskUnits="userSpaceOnUse" x="0" y="0" width="1200" height="928">
    <rect y="233" width="1200" height="695" fill="#A069F7"/>
    <path fill-rule="evenodd" clip-rule="evenodd" d="M0 0L50 48C100 96 200 192 300 222C400 252 500 216 600 168C700 120 800 60 900 36C1000 12 1100 24 1150 30L1200 36V288H1150C1100 288 1000 288 900 288C800 288 700 288 600 288C500 288 400 288 300 288C200 288 100 288 50 288H0V0Z" fill="#A069F7"/>
  </mask>
  <g mask="url(#mask0)">
  <rect y="233" width="1200" height="695" fill="#A069F7"/>
    <path fill-rule="evenodd" clip-rule="evenodd" d="M0 0L50 48C100 96 200 192 300 222C400 252 500 216 600 168C700 120 800 60 900 36C1000 12 1100 24 1150 30L1200 36V288H1150C1100 288 1000 288 900 288C800 288 700 288 600 288C500 288 400 288 300 288C200 288 100 288 50 288H0V0Z" fill="#A069F7"/>
    <path d="M1251.67 0.00537109H-713V1473.5H1251.67V0.00537109Z" fill="#9658F8"/>
    <path d="M563.05 0.00585938H542.781V60.5503H563.05V0.00585938Z" fill="#B45EFA"/>
    <path d="M542.781 0.00585938H522.512V100.924H542.781V0.00585938Z" fill="#B45EFA"/>
    <path d="M522.513 0.00585938H502.244V161.501H522.513V0.00585938Z" fill="#B45EFA"/>
    <path d="M502.276 0.00585938H482.008V222.046H502.276V0.00585938Z" fill="#B45EFA"/>
    <path d="M482.008 60.5502H461.739V262.387H482.008V60.5502Z" fill="#B45EFA"/>
    <path d="M461.772 121.128H441.503V302.794H461.772V121.128Z" fill="#B45EFA"/>
    <path d="M441.503 201.843H421.234V363.338H441.503V201.843Z" fill="#B45EFA"/>
    <path d="M421.267 262.42H400.998V423.915H421.267V262.42Z" fill="#B45EFA"/>
    <path d="M400.998 343.135H380.729V464.256H400.998V343.135Z" fill="#B45EFA"/>
    <path d="M380.762 403.712H360.493V504.63H380.762V403.712Z" fill="#B45EFA"/>
    <path d="M360.493 464.257H340.224V565.175H360.493V464.257Z" fill="#B45EFA"/>
    <path d="M340.224 545.004H319.955V605.549H340.224V545.004Z" fill="#B45EFA"/>
    <path d="M319.989 121.128H299.72V545.004H319.989V121.128Z" fill="#B45EFA"/>
    <path d="M299.719 423.882H279.451V605.549H299.719V423.882Z" fill="#B45EFA"/>
    <path d="M380.762 0.00585938H360.493V141.298H380.762V0.00585938Z" fill="#B45EFA"/>
    <path d="M360.493 0.00585938H340.224V262.42H360.493V0.00585938Z" fill="#B45EFA"/>
    <path d="M340.224 0.00585938H319.955V383.509H340.224V0.00585938Z" fill="#B45EFA"/>
    <path d="M785.843 0.00585938H765.574V20.1764H785.843V0.00585938Z" fill="#B45EFA"/>
    <path d="M765.574 0.00585938H745.306V60.5503H765.574V0.00585938Z" fill="#B45EFA"/>
    <path d="M745.338 0.00585938H725.069V80.7536H745.338V0.00585938Z" fill="#B45EFA"/>
    <path d="M725.069 0.00585938H704.801V121.127H725.069V0.00585938Z" fill="#B45EFA"/>
    <path d="M704.801 0.00585938H684.532V141.298H704.801V0.00585938Z" fill="#B45EFA"/>
    <path d="M684.565 40.3796H664.296V181.672H684.565V40.3796Z" fill="#B45EFA"/>
    <path d="M664.296 80.7537H644.027V201.875H664.296V80.7537Z" fill="#B45EFA"/>
    <path d="M644.06 121.128H623.791V222.046H644.06V121.128Z" fill="#B45EFA"/>
    <path d="M623.791 141.298H603.522V262.42H623.791V141.298Z" fill="#B45EFA"/>
    <path d="M603.555 181.672H583.286V282.59H603.555V181.672Z" fill="#B45EFA"/>
    <path d="M583.286 222.046H563.017V302.793H583.286V222.046Z" fill="#B45EFA"/>
    <path d="M583.286 222.046H563.017V322.964H583.286V222.046Z" fill="#B45EFA"/>
    <path d="M563.05 262.42H542.781V363.338H563.05V262.42Z" fill="#B45EFA"/>
    <path d="M542.781 302.793H522.512V383.541H542.781V302.793Z" fill="#B45EFA"/>
    <path d="M522.513 322.964H502.244V403.712H522.513V322.964Z" fill="#B45EFA"/>
    <path d="M502.276 363.338H482.008V423.882H502.276V363.338Z" fill="#B45EFA"/>
    <path d="M482.008 383.509H461.739V464.256H482.008V383.509Z" fill="#B45EFA"/>
    <path d="M461.772 423.882H441.503V504.63H461.772V423.882Z" fill="#B45EFA"/>
    <path d="M441.503 464.257H421.234V524.801H441.503V464.257Z" fill="#B45EFA"/>
    <path d="M421.267 504.63H400.998V565.175H421.267V504.63Z" fill="#B45EFA"/>
    <path d="M400.998 545.004H380.729V585.378H400.998V545.004Z" fill="#B45EFA"/>
    <path d="M380.762 565.175H360.493V605.549H380.762V565.175Z" fill="#B45EFA"/>
    <path d="M1089.65 0.00585938H1069.38V20.1764H1089.65V0.00585938Z" fill="#B45EFA"/>
    <path d="M1069.38 0.00585938H1049.11V40.3797H1069.38V0.00585938Z" fill="#B45EFA"/>
    <path d="M1049.14 0.00585938H1028.87V60.5503H1049.14V0.00585938Z" fill="#B45EFA"/>
    <path d="M1028.87 0.00585938H1008.6V80.7536H1028.87V0.00585938Z" fill="#B45EFA"/>
    <path d="M1008.64 0.00585938H988.367V100.924H1008.64V0.00585938Z" fill="#B45EFA"/>
    <path d="M988.368 0.00585938H968.099V121.127H988.368V0.00585938Z" fill="#B45EFA"/>
    <path d="M968.131 0.00585938H947.862V121.127H968.131V0.00585938Z" fill="#B45EFA"/>
    <path d="M947.863 20.1765H927.594V141.298H947.863V20.1765Z" fill="#B45EFA"/>
    <path d="M927.627 40.3796H907.358V161.501H927.627V40.3796Z" fill="#B45EFA"/>
    <path d="M907.358 60.5502H887.089V181.672H907.358V60.5502Z" fill="#B45EFA"/>
    <path d="M887.089 80.7537H866.82V201.875H887.089V80.7537Z" fill="#B45EFA"/>
    <path d="M866.853 100.924H846.584V222.046H866.853V100.924Z" fill="#B45EFA"/>
    <path d="M846.584 141.298H826.315V242.217H846.584V141.298Z" fill="#B45EFA"/>
    <path d="M826.348 161.501H806.079V262.42H826.348V161.501Z" fill="#B45EFA"/>
    <path d="M806.079 181.672H785.811V282.59H806.079V181.672Z" fill="#B45EFA"/>
    <path d="M765.574 222.046H745.306V302.793H765.574V222.046Z" fill="#B45EFA"/>
    <path d="M745.338 242.216H725.069V322.964H745.338V242.216Z" fill="#B45EFA"/>
    <path d="M725.069 262.42H704.801V343.168H725.069V262.42Z" fill="#B45EFA"/>
    <path d="M704.801 282.59H684.532V363.338H704.801V282.59Z" fill="#B45EFA"/>
    <path d="M684.565 302.793H664.296V383.541H684.565V302.793Z" fill="#B45EFA"/>
    <path d="M664.296 322.964H644.027V403.712H664.296V322.964Z" fill="#B45EFA"/>
    <path d="M644.06 363.338H623.791V423.882H644.06V363.338Z" fill="#B45EFA"/>
    <path d="M623.791 383.509H603.522V444.053H623.791V383.509Z" fill="#B45EFA"/>
    <path d="M603.555 403.712H583.286V464.256H603.555V403.712Z" fill="#B45EFA"/>
    <path d="M583.286 423.882H563.017V484.427H583.286V423.882Z" fill="#B45EFA"/>
    <path d="M563.05 444.086H542.781V504.63H563.05V444.086Z" fill="#B45EFA"/>
    <path d="M542.781 464.257H522.512V504.63H542.781V464.257Z" fill="#B45EFA"/>
    <path d="M522.513 484.459H502.244V524.833H522.513V484.459Z" fill="#B45EFA"/>
    <path d="M502.276 504.63H482.008V545.004H502.276V504.63Z" fill="#B45EFA"/>
    <path d="M482.008 524.801H461.739V565.175H482.008V524.801Z" fill="#B45EFA"/>
    <path d="M461.772 545.004H441.503V585.378H461.772V545.004Z" fill="#B45EFA"/>
    <path d="M441.503 565.175H421.234V605.549H441.503V565.175Z" fill="#B45EFA"/>
    <path d="M421.267 585.378H400.998V625.752H421.267V585.378Z" fill="#B45EFA"/>
    <path d="M400.998 605.549H380.729V645.922H400.998V605.549Z" fill="#B45EFA"/>
    <path d="M785.843 201.843H765.574V282.59H785.843V201.843Z" fill="#B45EFA"/>
    <path d="M1251.67 363.338H1190.89V383.508H1251.67V363.338Z" fill="#B45EFA"/>
    <path d="M1251.67 383.509H1150.39V403.679H1251.67V383.509Z" fill="#B45EFA"/>
    <path d="M1251.67 403.712H1109.88V423.882H1251.67V403.712Z" fill="#B45EFA"/>
    <path d="M1251.67 423.882H1049.11V444.053H1251.67V423.882Z" fill="#B45EFA"/>
    <path d="M1251.67 444.086H988.367V464.257H1251.67V444.086Z" fill="#B45EFA"/>
    <path d="M1190.92 464.257H947.862V484.427H1190.92V464.257Z" fill="#B45EFA"/>
    <path d="M1130.15 484.459H887.089V504.63H1130.15V484.459Z" fill="#B45EFA"/>
    <path d="M1069.38 504.63H846.584V524.801H1069.38V504.63Z" fill="#B45EFA"/>
    <path d="M988.367 524.801H806.079V544.972H988.367V524.801Z" fill="#B45EFA"/>
    <path d="M927.594 545.004H745.306V565.175H927.594V545.004Z" fill="#B45EFA"/>
    <path d="M866.82 565.175H704.801V585.345H866.82V565.175Z" fill="#B45EFA"/>
    <path d="M785.81 585.378H644.027V605.549H785.81V585.378Z" fill="#B45EFA"/>
    <path d="M725.07 605.549H583.286V625.719H725.07V605.549Z" fill="#B45EFA"/>
    <path d="M664.296 625.752H542.781V645.922H664.296V625.752Z" fill="#B45EFA"/>
    <path d="M603.522 645.922H502.244V666.093H603.522V645.922Z" fill="#B45EFA"/>
    <path d="M563.017 666.093H461.739V686.264H563.017V666.093Z" fill="#B45EFA"/>
    <path d="M522.513 686.296H421.234V706.467H522.513V686.296Z" fill="#B45EFA"/>
    <path d="M826.315 706.467H482.008V726.637H826.315V706.467Z" fill="#B45EFA"/>
    <path d="M1109.88 686.296H583.286V706.467H1109.88V686.296Z" fill="#B45EFA"/>
    <path d="M1251.67 666.093H704.801V686.264H1251.67V666.093Z" fill="#B45EFA"/>
    <path d="M1251.67 645.922H846.584V666.093H1251.67V645.922Z" fill="#B45EFA"/>
    <path d="M1251.67 625.752H968.099V645.922H1251.67V625.752Z" fill="#B45EFA"/>
    <path d="M1251.67 605.549H1089.65V625.719H1251.67V605.549Z" fill="#B45EFA"/>
    <path d="M482.008 726.67H441.503V746.841H482.008V726.67Z" fill="#B45EFA"/>
    <path d="M441.503 746.84H360.493V767.011H441.503V746.84Z" fill="#B45EFA"/>
    <path d="M1211.16 100.924H1190.89V222.046H1211.16V100.924Z" fill="#B45EFA"/>
    <path d="M1190.92 121.128H1170.66V242.249H1190.92V121.128Z" fill="#B45EFA"/>
    <path d="M1170.66 141.298H1150.39V242.217H1170.66V141.298Z" fill="#B45EFA"/>
    <path d="M1150.42 141.298H1130.15V242.217H1150.42V141.298Z" fill="#B45EFA"/>
    <path d="M1130.15 161.501H1109.88V262.42H1130.15V161.501Z" fill="#B45EFA"/>
    <path d="M1109.91 181.672H1089.65V282.59H1109.91V181.672Z" fill="#B45EFA"/>
    <path d="M1089.65 181.672H1069.38V282.59H1089.65V181.672Z" fill="#B45EFA"/>
    <path d="M1069.38 201.843H1049.11V302.761H1069.38V201.843Z" fill="#B45EFA"/>
    <path d="M1049.14 222.046H1028.87V322.964H1049.14V222.046Z" fill="#B45EFA"/>
    <path d="M1028.87 222.046H1008.6V322.964H1028.87V222.046Z" fill="#B45EFA"/>
    <path d="M1008.64 242.216H988.367V343.135H1008.64V242.216Z" fill="#B45EFA"/>
    <path d="M988.368 262.42H968.099V363.338H988.368V262.42Z" fill="#B45EFA"/>
    <path d="M968.131 262.42H947.862V363.338H968.131V262.42Z" fill="#B45EFA"/>
    <path d="M947.863 282.59H927.594V383.509H947.863V282.59Z" fill="#B45EFA"/>
    <path d="M947.863 302.793H927.594V383.541H947.863V302.793Z" fill="#B45EFA"/>
    <path d="M927.627 302.793H907.358V383.541H927.627V302.793Z" fill="#B45EFA"/>
    <path d="M907.358 322.964H887.089V403.712H907.358V322.964Z" fill="#B45EFA"/>
    <path d="M887.089 322.964H866.82V403.712H887.089V322.964Z" fill="#B45EFA"/>
    <path d="M866.853 343.135H846.584V423.883H866.853V343.135Z" fill="#B45EFA"/>
    <path d="M846.584 363.338H826.315V444.086H846.584V363.338Z" fill="#B45EFA"/>
    <path d="M826.348 363.338H806.079V444.086H826.348V363.338Z" fill="#B45EFA"/>
    <path d="M806.079 383.509H785.811V464.256H806.079V383.509Z" fill="#B45EFA"/>
    <path d="M785.843 403.712H765.574V464.256H785.843V403.712Z" fill="#B45EFA"/>
    <path d="M765.574 423.882H745.306V484.427H765.574V423.882Z" fill="#B45EFA"/>
    <path d="M745.338 423.882H725.069V484.427H745.338V423.882Z" fill="#B45EFA"/>
    <path d="M725.069 444.086H704.801V504.63H725.069V444.086Z" fill="#B45EFA"/>
    <path d="M704.801 464.257H684.532V524.801H704.801V464.257Z" fill="#B45EFA"/>
    <path d="M684.565 464.257H664.296V524.801H684.565V464.257Z" fill="#B45EFA"/>
    <path d="M664.296 484.459H644.027V545.004H664.296V484.459Z" fill="#B45EFA"/>
    <path d="M644.06 484.459H623.791V545.004H644.06V484.459Z" fill="#B45EFA"/>
    <path d="M623.791 504.63H603.522V565.175H623.791V504.63Z" fill="#B45EFA"/>
    <path d="M603.555 524.801H583.286V565.175H603.555V524.801Z" fill="#B45EFA"/>
    <path d="M583.286 545.004H563.017V585.378H583.286V545.004Z" fill="#B45EFA"/>
    <path d="M563.05 545.004H542.781V585.378H563.05V545.004Z" fill="#B45EFA"/>
    <path d="M542.781 565.175H522.512V605.549H542.781V565.175Z" fill="#B45EFA"/>
    <path d="M522.513 585.378H502.244V625.752H522.513V585.378Z" fill="#B45EFA"/>
    <path d="M502.276 585.378H482.008V625.752H502.276V585.378Z" fill="#B45EFA"/>
    <path d="M482.008 605.549H461.739V645.922H482.008V605.549Z" fill="#B45EFA"/>
    <path d="M461.772 625.752H441.503V645.922H461.772V625.752Z" fill="#B45EFA"/>
    <path d="M441.503 645.922H421.234V666.093H441.503V645.922Z" fill="#B45EFA"/>
    <path d="M421.267 666.093H400.998V686.264H421.267V666.093Z" fill="#B45EFA"/>
    <path d="M16.153 0.00585938H-4.11572V100.924H16.153V0.00585938Z" fill="#B45EFA"/>
    <path d="M36.4214 0.00585938H16.1526V161.501H36.4214V0.00585938Z" fill="#B45EFA"/>
    <path d="M36.3806 222.04H56.6494L56.6494 -1.52588e-05H36.3806L36.3806 222.04Z" fill="#B45EFA"/>
    <path d="M56.6533 262.42H76.9221L76.9221 60.5835H56.6533L56.6533 262.42Z" fill="#B45EFA"/>
    <path d="M76.8931 302.767H97.1619L97.1619 121.101H76.8931L76.8931 302.767Z" fill="#B45EFA"/>
    <path d="M97.1653 363.347H117.434L117.434 201.851H97.1653L97.1653 363.347Z" fill="#B45EFA"/>
    <path d="M117.405 423.879H137.674L137.674 262.384H117.405L117.405 423.879Z" fill="#B45EFA"/>
    <path d="M137.678 464.274H157.947L157.947 343.152H137.678V464.274Z" fill="#B45EFA"/>
    <path d="M157.917 504.621H178.186V403.703H157.917V504.621Z" fill="#B45EFA"/>
    <path d="M178.19 565.186H198.459V464.268H178.19V565.186Z" fill="#B45EFA"/>
    <path d="M198.43 605.548H218.699V545.003H198.43V605.548Z" fill="#B45EFA"/>
    <path d="M238.979 121.127H218.71V545.004H238.979V121.127Z" fill="#B45EFA"/>
    <path d="M259.215 423.882H238.946V605.548H259.215V423.882Z" fill="#B45EFA"/>
    <path d="M178.205 0.00585938H157.936V141.298H178.205V0.00585938Z" fill="#B45EFA"/>
    <path d="M198.441 0.00585938H178.172V262.42H198.441V0.00585938Z" fill="#B45EFA"/>
    <path d="M218.71 0.00585938H198.441V383.509H218.71V0.00585938Z" fill="#B45EFA"/>
    <path d="M16.153 302.793H-4.11572V383.541H16.153V302.793Z" fill="#B45EFA"/>
    <path d="M36.4214 322.964H16.1526V403.712H36.4214V322.964Z" fill="#B45EFA"/>
    <path d="M56.6904 363.338H36.4216V423.882H56.6904V363.338Z" fill="#B45EFA"/>
    <path d="M76.9266 383.509H56.6578V464.256H76.9266V383.509Z" fill="#B45EFA"/>
    <path d="M97.1953 423.882H76.9265V504.63H97.1953V423.882Z" fill="#B45EFA"/>
    <path d="M117.431 464.256H97.1626V524.8H117.431V464.256Z" fill="#B45EFA"/>
    <path d="M137.7 504.63H117.431V565.175H137.7V504.63Z" fill="#B45EFA"/>
    <path d="M157.936 545.004H137.667V585.378H157.936V545.004Z" fill="#B45EFA"/>
    <path d="M178.205 565.175H157.936V605.549H178.205V565.175Z" fill="#B45EFA"/>
    <path d="M16.153 464.256H-4.11572V504.63H16.153V464.256Z" fill="#B45EFA"/>
    <path d="M36.4214 484.459H16.1526V524.833H36.4214V484.459Z" fill="#B45EFA"/>
    <path d="M56.6904 504.63H36.4216V545.004H56.6904V504.63Z" fill="#B45EFA"/>
    <path d="M76.9266 524.801H56.6578V565.175H76.9266V524.801Z" fill="#B45EFA"/>
    <path d="M97.1953 545.004H76.9265V585.378H97.1953V545.004Z" fill="#B45EFA"/>
    <path d="M117.431 565.175H97.1626V605.549H117.431V565.175Z" fill="#B45EFA"/>
    <path d="M137.7 585.378H117.431V625.752H137.7V585.378Z" fill="#B45EFA"/>
    <path d="M157.936 605.549H137.667V645.922H157.936V605.549Z" fill="#B45EFA"/>
    <path d="M36.4213 645.923H-64.8572V666.093H36.4213V645.923Z" fill="#B45EFA"/>
    <path d="M76.9268 666.093H-24.3517V686.263H76.9268V666.093Z" fill="#B45EFA"/>
    <path d="M117.431 686.296H16.1526V706.467H117.431V686.296Z" fill="#B45EFA"/>
    <path d="M56.6577 706.467H-287.65V726.638H56.6577V706.467Z" fill="#B45EFA"/>
    <path d="M97.1627 726.67H56.6578V746.84H97.1627V726.67Z" fill="#B45EFA"/>
    <path d="M178.172 746.841H97.1626V767.011H178.172V746.841Z" fill="#B45EFA"/>
    <path d="M16.153 565.175H-4.11572V605.549H16.153V565.175Z" fill="#B45EFA"/>
    <path d="M36.4214 585.378H16.1526V625.752H36.4214V585.378Z" fill="#B45EFA"/>
    <path d="M56.6904 585.378H36.4216V625.752H56.6904V585.378Z" fill="#B45EFA"/>
    <path d="M76.9266 605.549H56.6578V645.922H76.9266V605.549Z" fill="#B45EFA"/>
    <path d="M97.1953 625.752H76.9265V645.922H97.1953V625.752Z" fill="#B45EFA"/>
    <path d="M117.431 645.923H97.1626V666.093H117.431V645.923Z" fill="#B45EFA"/>
    <path d="M137.7 666.093H117.431V686.263H137.7V666.093Z" fill="#B45EFA"/>
    <path d="M198.43 948.706H218.699V888.162H198.43V948.706Z" fill="#B45EFA"/>
    <path d="M259.215 888.133H238.946V1170.72H259.215V888.133Z" fill="#B45EFA"/>
    <path d="M157.936 908.336H137.667V948.71H157.936V908.336Z" fill="#B45EFA"/>
    <path d="M178.205 888.133H157.936V928.507H178.205V888.133Z" fill="#B45EFA"/>
    <path d="M97.195 908.336H76.9263V948.71H97.195V908.336Z" fill="#B45EFA"/>
    <path d="M117.431 888.133H97.1625V928.507H117.431V888.133Z" fill="#B45EFA"/>
    <path d="M137.7 867.962H117.431V908.336H137.7V867.962Z" fill="#B45EFA"/>
    <path d="M157.936 847.759H137.667V888.133H157.936V847.759Z" fill="#B45EFA"/>
    <path d="M36.4213 827.588H-64.8572V847.759H36.4213V827.588Z" fill="#B45EFA"/>
    <path d="M76.9267 807.418H-24.3518V827.588H76.9267V807.418Z" fill="#B45EFA"/>
    <path d="M117.431 787.214H16.1526V807.385H117.431V787.214Z" fill="#B45EFA"/>
    <path d="M56.6577 767.044H-287.65V787.214H56.6577V767.044Z" fill="#B45EFA"/>
    <path d="M97.1627 746.84H56.6578V767.011H97.1627V746.84Z" fill="#B45EFA"/>
    <path d="M117.431 726.67H97.1625V746.841H117.431V726.67Z" fill="#B45EFA"/>
    <path d="M441.503 726.67H421.234V746.841H441.503V726.67Z" fill="#B45EFA"/>
    <path d="M16.153 888.133H-4.11572V928.507H16.153V888.133Z" fill="#B45EFA"/>
    <path d="M36.4214 867.962H16.1526V908.336H36.4214V867.962Z" fill="#B45EFA"/>
    <path d="M56.6904 867.962H36.4216V908.336H56.6904V867.962Z" fill="#B45EFA"/>
    <path d="M76.9266 847.759H56.6578V888.133H76.9266V847.759Z" fill="#B45EFA"/>
    <path d="M97.195 847.759H76.9263V867.929H97.195V847.759Z" fill="#B45EFA"/>
    <path d="M117.431 827.588H97.1625V847.759H117.431V827.588Z" fill="#B45EFA"/>
    <path d="M137.7 807.418H117.431V827.588H137.7V807.418Z" fill="#B45EFA"/>
    <path d="M340.224 888.133H319.955V948.677H340.224V888.133Z" fill="#B45EFA"/>
    <path d="M299.719 888.133H279.451V1170.72H299.719V888.133Z" fill="#B45EFA"/>
    <path d="M400.998 908.336H380.729V948.71H400.998V908.336Z" fill="#B45EFA"/>
    <path d="M380.762 888.133H360.493V928.507H380.762V888.133Z" fill="#B45EFA"/>
    <path d="M461.772 908.336H441.503V948.71H461.772V908.336Z" fill="#B45EFA"/>
    <path d="M441.503 888.133H421.234V928.507H441.503V888.133Z" fill="#B45EFA"/>
    <path d="M421.267 867.962H400.998V908.336H421.267V867.962Z" fill="#B45EFA"/>
    <path d="M400.998 847.759H380.729V888.133H400.998V847.759Z" fill="#B45EFA"/>
    <path d="M866.82 908.336H704.801V928.507H866.82V908.336Z" fill="#B45EFA"/>
    <path d="M785.81 888.133H644.027V908.304H785.81V888.133Z" fill="#B45EFA"/>
    <path d="M725.07 867.962H583.286V888.133H725.07V867.962Z" fill="#B45EFA"/>
    <path d="M664.296 847.759H542.781V867.93H664.296V847.759Z" fill="#B45EFA"/>
    <path d="M603.522 827.589H502.244V847.759H603.522V827.589Z" fill="#B45EFA"/>
    <path d="M563.017 807.418H461.739V827.589H563.017V807.418Z" fill="#B45EFA"/>
    <path d="M522.513 787.215H421.234V807.385H522.513V787.215Z" fill="#B45EFA"/>
    <path d="M826.315 767.044H482.008V787.215H826.315V767.044Z" fill="#B45EFA"/>
    <path d="M1109.88 787.215H583.286V807.385H1109.88V787.215Z" fill="#B45EFA"/>
    <path d="M1251.67 807.418H704.801V827.589H1251.67V807.418Z" fill="#B45EFA"/>
    <path d="M1251.67 827.589H846.584V847.759H1251.67V827.589Z" fill="#B45EFA"/>
    <path d="M1251.67 847.759H968.099V867.93H1251.67V847.759Z" fill="#B45EFA"/>
    <path d="M1251.67 867.962H1089.65V888.133H1251.67V867.962Z" fill="#B45EFA"/>
    <path d="M482.008 746.841H441.503V767.011H482.008V746.841Z" fill="#B45EFA"/>
    <path d="M583.286 908.336H563.017V948.71H583.286V908.336Z" fill="#B45EFA"/>
    <path d="M563.05 908.336H542.781V948.71H563.05V908.336Z" fill="#B45EFA"/>
    <path d="M542.781 888.133H522.512V928.507H542.781V888.133Z" fill="#B45EFA"/>
    <path d="M522.513 867.962H502.244V908.336H522.513V867.962Z" fill="#B45EFA"/>
    <path d="M502.276 867.962H482.008V908.336H502.276V867.962Z" fill="#B45EFA"/>
    <path d="M482.008 847.759H461.739V888.133H482.008V847.759Z" fill="#B45EFA"/>
    <path d="M461.772 847.759H441.503V867.93H461.772V847.759Z" fill="#B45EFA"/>
    <path d="M441.503 827.589H421.234V847.759H441.503V827.589Z" fill="#B45EFA"/>
    <path d="M421.267 807.418H400.998V827.589H421.267V807.418Z" fill="#B45EFA"/>
  </g>
</svg>
