  <svg viewBox="0 0 1200 239" fill="none" xmlns="http://www.w3.org/2000/svg">
    <path d="M1202 22.775L1176.96 52.8063C1151.92 82.8375 1101.83 142.9 1051.75 142.9C1001.67 142.9 951.583 82.8375 901.5 76.8313C851.417 70.825 801.333 118.875 751.25 148.906C701.167 178.938 651.083 190.95 601 172.931C550.917 154.913 500.833 106.863 450.75 64.8188C400.667 22.7751 350.583 -13.2624 300.5 4.7563C250.417 22.775 200.333 94.85 150.25 130.888C100.167 166.925 50.0834 166.925 25.0416 166.925H0V239H25.0416C50.0834 239 100.167 239 150.25 239C200.333 239 250.417 239 300.5 239C350.583 239 400.667 239 450.75 239C500.833 239 550.917 239 601 239C651.083 239 701.167 239 751.25 239C801.333 239 851.417 239 901.5 239C951.583 239 1001.67 239 1051.75 239C1101.83 239 1151.92 239 1176.96 239H1202V22.775Z" fill="#96CF25"/>
  </svg>