<svg width="80" height="122" viewBox="0 0 80 122" fill="none" xmlns="http://www.w3.org/2000/svg">
  <path
    d="M35.3329 0L-25.6493 16.3531L-42 77.3442L2.6493 122L63.6493 105.647L80 44.638L35.3329 0ZM2.02794 113.406L-33.3897 77.9657L15.0055 65.0039L2.02794 113.406ZM20.4558 66.4599L55.8911 101.9L7.49592 114.88L20.4558 66.4599ZM-17.8912 20.1173L30.5041 7.13783L17.5442 55.5401L-17.8912 20.1173ZM35.9543 8.61156L71.3897 44.0343L22.9945 56.9961L35.9543 8.61156ZM-21.8856 24.1124L13.5498 59.5529L-34.8455 72.5146L-21.8856 24.1124ZM59.8856 97.9054L24.4502 62.4649L72.8455 49.5031L59.8856 97.9054Z"
    fill="#231F20" />
</svg>