<svg viewBox="0 0 1200 280" xmlns="http://www.w3.org/2000/svg"><rect width="100%" height="100%" fill="#96CF25"></rect><path d="M-116.694 258.673L-77.2865 265.838C-36.6848 273.003 42.1301 287.333 122.139 273.003C202.148 258.673 280.963 215.683 360.973 222.848C440.982 230.013 519.797 287.333 599.806 273.003C679.815 258.673 758.63 172.693 838.639 122.538C918.648 72.3833 997.463 58.0533 1077.47 79.5483C1157.48 101.043 1236.3 158.363 1276.9 187.023L1316.31 215.683V0.733368H1276.9C1236.3 0.733368 1157.48 0.733368 1077.47 0.733368C997.463 0.733368 918.648 0.733368 838.639 0.733368C758.63 0.733368 679.815 0.733368 599.806 0.733368C519.797 0.733368 440.982 0.733368 360.973 0.733368C280.963 0.733368 202.148 0.733368 122.139 0.733368C42.1301 0.733368 -36.6848 0.733368 -77.2865 0.733368H-116.694V258.673Z" fill="#00AAFF"></path></svg>